<svg id="Calque_3" data-name="Calque 3" xmlns="http://www.w3.org/2000/svg" xmlns:xlink="http://www.w3.org/1999/xlink" viewBox="0 0 541.31 118.15"><defs><style>.cls-1{fill:none;}.cls-2{clip-path:url(#clip-path);}.cls-3{fill:#1d1d1b;}</style><clipPath id="clip-path" transform="translate(-364.69 -186.46)"><rect class="cls-1" x="364.69" y="186.46" width="541.31" height="118.15"/></clipPath></defs><title>logo</title><g class="cls-2"><path class="cls-3" d="M496.85,303.56,469.44,256.3c0,.43,0,.84,0,1.28v46Z" transform="translate(-364.69 -186.46)"/></g><polygon class="cls-3" points="0 117.1 34.64 117.1 34.64 53.96 0 117.1"/><g class="cls-2"><path class="cls-3" d="M436.66,244.15a15.59,15.59,0,0,0-8.63,2.61,40.22,40.22,0,0,0-8.87,8.71v39.31l30.56-20.65v-14.6c0-4.73-1.16-8.48-3.51-11.24a11.85,11.85,0,0,0-9.55-4.14" transform="translate(-364.69 -186.46)"/><path class="cls-3" d="M419.16,231v10.22a35.33,35.33,0,0,1,11.25-8.94A29.35,29.35,0,0,1,443,229.62a28.06,28.06,0,0,1,12.58,2.71l-26.61-45.87L404.47,231Z" transform="translate(-364.69 -186.46)"/></g><path class="cls-3" d="M544,289.19l2.55,7h-5.08ZM540.9,283,532.63,304h6l1.3-3.66H548l1.3,3.66h6L547.07,283Z" transform="translate(-364.69 -186.46)"/><polygon class="cls-3" points="210.16 96.5 210.16 109.38 199.72 96.5 194.06 96.5 194.06 117.56 199.72 117.56 199.72 104.68 210.16 117.56 215.78 117.56 215.78 96.5 210.16 96.5"/><g class="cls-2"><path class="cls-3" d="M608,292.23h11.22c0,1.12-.05,2.13-.14,3a10.71,10.71,0,0,1-.58,2.54,10,10,0,0,1-1.64,2.92,9.89,9.89,0,0,1-2.44,2.12,11.68,11.68,0,0,1-3.07,1.3,14,14,0,0,1-3.52.44,12.75,12.75,0,0,1-4.63-.81,10.47,10.47,0,0,1-3.59-2.27,10.17,10.17,0,0,1-2.33-3.52,12.75,12.75,0,0,1,0-9.05,9.92,9.92,0,0,1,2.34-3.51,10.73,10.73,0,0,1,3.65-2.26,13.26,13.26,0,0,1,4.75-.81,12.2,12.2,0,0,1,6,1.42,10,10,0,0,1,4.07,4.42l-5.37,2.15a5.25,5.25,0,0,0-1.94-2.49,5,5,0,0,0-2.73-.75,5.56,5.56,0,0,0-2.3.46,5,5,0,0,0-1.78,1.31,6.23,6.23,0,0,0-1.15,2.06,8.06,8.06,0,0,0-.42,2.68,8.21,8.21,0,0,0,.36,2.48,5.42,5.42,0,0,0,1.08,2,4.68,4.68,0,0,0,1.79,1.3,6.17,6.17,0,0,0,2.48.46,7.81,7.81,0,0,0,1.62-.17,4.72,4.72,0,0,0,1.4-.59,3.41,3.41,0,0,0,1-1,4.17,4.17,0,0,0,.55-1.56H608Z" transform="translate(-364.69 -186.46)"/><path class="cls-3" d="M623.52,289.69h5.22V292a5.87,5.87,0,0,1,2-2,5.66,5.66,0,0,1,2.82-.68h.45a3.06,3.06,0,0,1,.56.06v4.83a5,5,0,0,0-2.25-.5,3.43,3.43,0,0,0-2.73,1.05,4.53,4.53,0,0,0-.9,3.05V304h-5.22Z" transform="translate(-364.69 -186.46)"/><path class="cls-3" d="M643.3,289.69v8.07a2.66,2.66,0,0,0,5.31,0v-8.07h5.21v9.05a5.06,5.06,0,0,1-2,4.36c-1.32,1-3.28,1.45-5.9,1.45s-4.58-.48-5.89-1.45a5.07,5.07,0,0,1-2-4.36v-9.05Z" transform="translate(-364.69 -186.46)"/><path class="cls-3" d="M658.38,289.69h5.22v1.81a5.67,5.67,0,0,1,2.16-1.69,7.17,7.17,0,0,1,2.57-.43,6.53,6.53,0,0,1,2.67.49,5.31,5.31,0,0,1,1.89,1.38,3.92,3.92,0,0,1,.86,1.62,8.42,8.42,0,0,1,.23,2V304h-5.22v-7.24a7.38,7.38,0,0,0-.16-1.72,2.06,2.06,0,0,0-.56-1,2,2,0,0,0-.78-.48,3.06,3.06,0,0,0-.92-.14,2.62,2.62,0,0,0-2,.77,3.16,3.16,0,0,0-.71,2.2V304h-5.22Z" transform="translate(-364.69 -186.46)"/><path class="cls-3" d="M683.5,296.81a3.11,3.11,0,0,0,.26,1.3,3.27,3.27,0,0,0,.7,1.05,3.42,3.42,0,0,0,1.07.7,3.67,3.67,0,0,0,1.34.25,3.59,3.59,0,0,0,1.31-.25,3.31,3.31,0,0,0,1.07-.7,3.68,3.68,0,0,0,.72-1,3,3,0,0,0,0-2.53,3.5,3.5,0,0,0-.72-1.05,3.16,3.16,0,0,0-1.07-.7,3.56,3.56,0,0,0-2.62,0,3.26,3.26,0,0,0-1.07.7,3.63,3.63,0,0,0-.72,1,2.88,2.88,0,0,0-.27,1.24m6.57-16h5.25V304h-5.25v-1.6a5.54,5.54,0,0,1-4.52,2.05,7.39,7.39,0,0,1-3-.59,7.24,7.24,0,0,1-2.37-1.62,7.37,7.37,0,0,1-1.57-2.43,8.11,8.11,0,0,1-.56-3,8,8,0,0,1,.53-2.92,7.13,7.13,0,0,1,1.51-2.41,7.26,7.26,0,0,1,2.35-1.64,7.47,7.47,0,0,1,3-.6,6.11,6.11,0,0,1,4.58,1.87Z" transform="translate(-364.69 -186.46)"/><path class="cls-3" d="M711.67,296.9a3.09,3.09,0,0,0-.26-1.28,3,3,0,0,0-.72-1,3.6,3.6,0,0,0-1.07-.72,3.34,3.34,0,0,0-1.32-.26,3.27,3.27,0,0,0-2.35.95,3.5,3.5,0,0,0-.72,1.05,2.91,2.91,0,0,0-.28,1.27,3.19,3.19,0,0,0,.26,1.26,3.32,3.32,0,0,0,.72,1,3.79,3.79,0,0,0,1.08.7,3.28,3.28,0,0,0,1.32.27,3.45,3.45,0,0,0,1.29-.25,3.38,3.38,0,0,0,1.06-.7,4.14,4.14,0,0,0,.72-1,3,3,0,0,0,.27-1.23m-6.57-16.07v10.28a6.19,6.19,0,0,1,4.61-1.87,7.39,7.39,0,0,1,3,.6,7.1,7.1,0,0,1,2.34,1.62,7.41,7.41,0,0,1,1.51,2.4,7.89,7.89,0,0,1,.55,2.95,8,8,0,0,1-.56,3,7.53,7.53,0,0,1-1.57,2.43,7.66,7.66,0,0,1-2.38,1.64,7.32,7.32,0,0,1-3,.6,5.57,5.57,0,0,1-4.55-2.05V304h-5.23V280.83Z" transform="translate(-364.69 -186.46)"/><path class="cls-3" d="M732.2,294.77a3.22,3.22,0,0,0-5-1.73,2.8,2.8,0,0,0-1,1.73Zm-6.11,2.94q0,3.26,3.17,3.26a2.88,2.88,0,0,0,2.57-1.34h5c-1,3.28-3.57,4.92-7.65,4.92a10.16,10.16,0,0,1-3.43-.55,7.66,7.66,0,0,1-2.67-1.55,6.85,6.85,0,0,1-1.71-2.4,7.67,7.67,0,0,1-.61-3.13,8.44,8.44,0,0,1,.58-3.22,6.73,6.73,0,0,1,1.64-2.45,7.26,7.26,0,0,1,2.58-1.55,10.14,10.14,0,0,1,3.42-.54,9.85,9.85,0,0,1,3.37.54,6.8,6.8,0,0,1,2.54,1.58,6.91,6.91,0,0,1,1.59,2.53,9.82,9.82,0,0,1,.55,3.36v.54Z" transform="translate(-364.69 -186.46)"/><path class="cls-3" d="M750.89,293.38a6.18,6.18,0,0,0-2.83-.73,2.1,2.1,0,0,0-1.16.28.86.86,0,0,0-.45.75,1,1,0,0,0,.07.41.71.71,0,0,0,.32.29,2.67,2.67,0,0,0,.72.25l1.25.28a6,6,0,0,1,3.23,1.5,3.73,3.73,0,0,1,1.07,2.75,4.92,4.92,0,0,1-.52,2.26,5,5,0,0,1-1.44,1.69,7.15,7.15,0,0,1-2.22,1.06,10.31,10.31,0,0,1-2.86.38,11.89,11.89,0,0,1-5.91-1.65l1.91-3.58a7.55,7.55,0,0,0,4.15,1.46,2.13,2.13,0,0,0,1.18-.31.92.92,0,0,0,.46-.78,1.2,1.2,0,0,0-.07-.46.74.74,0,0,0-.3-.34,2.85,2.85,0,0,0-.68-.28c-.3-.08-.69-.17-1.17-.26a6.91,6.91,0,0,1-3.39-1.41,3.46,3.46,0,0,1-1-2.59,4.89,4.89,0,0,1,.46-2.16,4.43,4.43,0,0,1,1.32-1.63,6.3,6.3,0,0,1,2.09-1,9.7,9.7,0,0,1,2.73-.36,12.64,12.64,0,0,1,4.76.92Z" transform="translate(-364.69 -186.46)"/><path class="cls-3" d="M761.87,304h-5.22V289.69h5.22Zm-5.56-19.83a2.76,2.76,0,0,1,.23-1.11,3,3,0,0,1,.64-.91,2.93,2.93,0,0,1,2.07-.83,2.9,2.9,0,0,1,1.14.22,3.11,3.11,0,0,1,.94.61,3.16,3.16,0,0,1,.63.91,2.77,2.77,0,0,1,0,2.21,2.91,2.91,0,0,1-.63.91,3.11,3.11,0,0,1-.94.61,2.9,2.9,0,0,1-1.14.22,2.93,2.93,0,0,1-2.07-.83,2.78,2.78,0,0,1-.64-.91,2.74,2.74,0,0,1-.23-1.1" transform="translate(-364.69 -186.46)"/></g><polygon class="cls-3" points="402.44 98.93 402.44 103.23 400.71 103.23 400.71 107.45 402.44 107.45 402.44 117.56 407.66 117.56 407.66 107.45 410.63 107.45 410.63 103.23 407.66 103.23 407.66 98.93 402.44 98.93"/><polygon class="cls-3" points="414.06 103.23 414.06 107.45 420.08 107.45 413.11 117.56 428.1 117.56 428.1 113.35 421.88 113.35 428.8 103.23 414.06 103.23"/><g class="cls-2"><path class="cls-3" d="M819.4,292.23h11.22c0,1.12,0,2.13-.14,3a10.71,10.71,0,0,1-.58,2.54,10,10,0,0,1-1.64,2.92,9.71,9.71,0,0,1-2.44,2.12,11.68,11.68,0,0,1-3.07,1.3,14,14,0,0,1-3.52.44,12.71,12.71,0,0,1-4.63-.81,10.47,10.47,0,0,1-3.59-2.27,10.31,10.31,0,0,1-2.33-3.52,12.75,12.75,0,0,1,0-9.05,9.92,9.92,0,0,1,2.34-3.51,10.73,10.73,0,0,1,3.65-2.26,13.3,13.3,0,0,1,4.75-.81,12.2,12.2,0,0,1,6,1.42,10,10,0,0,1,4.07,4.42l-5.36,2.15a5.32,5.32,0,0,0-2-2.49,5,5,0,0,0-2.73-.75,5.64,5.64,0,0,0-2.31.46,5,5,0,0,0-1.77,1.31,6.23,6.23,0,0,0-1.15,2.06,8.06,8.06,0,0,0-.42,2.68,8.21,8.21,0,0,0,.36,2.48,5.42,5.42,0,0,0,1.08,2,4.76,4.76,0,0,0,1.79,1.3,6.17,6.17,0,0,0,2.48.46,7.81,7.81,0,0,0,1.62-.17,4.72,4.72,0,0,0,1.4-.59,3.41,3.41,0,0,0,1-1,4.17,4.17,0,0,0,.55-1.56H819.4Z" transform="translate(-364.69 -186.46)"/><path class="cls-3" d="M835,289.69h5.22v1.76a6.87,6.87,0,0,1,4.78-2,5.63,5.63,0,0,1,5,2.68,5.66,5.66,0,0,1,5-2.7,6.28,6.28,0,0,1,2,.29,4.09,4.09,0,0,1,1.58.92,4.28,4.28,0,0,1,1.06,1.64,6.73,6.73,0,0,1,.39,2.43V304h-5.22V297a8,8,0,0,0-.16-1.79,2.91,2.91,0,0,0-.46-1.09,1.57,1.57,0,0,0-.71-.53,2.72,2.72,0,0,0-.86-.14c-1.68,0-2.51,1.19-2.51,3.55V304h-5.22V297a8.9,8.9,0,0,0-.15-1.8,3.15,3.15,0,0,0-.41-1.13,1.47,1.47,0,0,0-.71-.58,3.28,3.28,0,0,0-1.93,0,1.68,1.68,0,0,0-.77.54,3.15,3.15,0,0,0-.52,1.12,7.89,7.89,0,0,0-.18,1.86V304H835Z" transform="translate(-364.69 -186.46)"/><path class="cls-3" d="M876.38,296.9a3.25,3.25,0,0,0-.25-1.28,3.34,3.34,0,0,0-.72-1,3.73,3.73,0,0,0-1.07-.72,3.43,3.43,0,0,0-1.33-.26,3.34,3.34,0,0,0-1.3.25,3.27,3.27,0,0,0-1.05.7,3.5,3.5,0,0,0-.72,1.05,3.15,3.15,0,0,0,0,2.53,3,3,0,0,0,.72,1,3.66,3.66,0,0,0,1.08.7,3.23,3.23,0,0,0,1.31.27,3.54,3.54,0,0,0,1.3-.25,3.45,3.45,0,0,0,1-.7,3.68,3.68,0,0,0,.72-1,3,3,0,0,0,.27-1.23m-6.57-16.07v10.28a6.21,6.21,0,0,1,4.62-1.87,7.42,7.42,0,0,1,3,.6,7.06,7.06,0,0,1,2.33,1.62,7.44,7.44,0,0,1,1.52,2.4,8.09,8.09,0,0,1,.54,2.95,7.83,7.83,0,0,1-.56,3,7.37,7.37,0,0,1-1.57,2.43,7.55,7.55,0,0,1-2.38,1.64,7.24,7.24,0,0,1-3,.6,5.6,5.6,0,0,1-4.56-2.05V304h-5.22V280.83Z" transform="translate(-364.69 -186.46)"/></g><polygon class="cls-3" points="535.66 96.5 535.66 104.63 527.5 104.63 527.5 96.5 521.85 96.5 521.85 117.56 527.5 117.56 527.5 108.88 535.66 108.88 535.66 117.56 541.32 117.56 541.32 96.5 535.66 96.5"/></svg>