<svg id="map02" xmlns="http://www.w3.org/2000/svg" viewBox="0 0 1366 768"><defs><style>.cls-1{fill:#f6f4f4;}.cls-2,.cls-3,.cls-5{fill:none;stroke-miterlimit:10;}.cls-2{stroke:#1d1d1b;stroke-width:0.25px;}.cls-3,.cls-5{stroke:#fff;}.cls-4{fill:#abd192;}.cls-5{stroke-width:5px;}.cls-6{fill:#1d1d1b;}.cls-7{fill:#fff;}.cls-8{fill:#cd1719;}.cls-9{fill:#928880;}.cls-10{fill:#d56c15;}.cls-11{fill:#283583;}.cls-12{fill:#d1ecfb;}</style></defs><title>map03</title><rect class="cls-1" x="0.9" y="0.21" width="1364.25" height="682.83"/><path class="cls-2" d="M1.1,65.2c1.63.51,91.84,25.13,91.84,25.13l55.34,12.21,65.56,22.38,65.27,30.52s36.28,13.39,37.36,15.6,56.42,19.49,56.42,19.49l119.83,34.08,46.74,16.79,163.89,85.45,96.72,55.44,244.49,161.24,58,38.15L1272.36,683M1.1,85.48l101,28.25,151,44.76,85.44,26.45,58.57,16.28,72.54,20.09,87,35.06,174.1,93.88,66.63,36.62,113.38,69.54,84.9,59.15L1065,564.89,1121.4,602l135.75,81M1.1,92.24l119.78,34.21L180,146.79l36.54,8.65,69.86,18.82L360,193.59l95.11,29,78.45,31,62.34,29,120.9,67.65,93.49,51.37,68.25,43.23,72,46.8,53.73,40.18,46.22,46.8,44.06,61L1132.46,683M1.1,104.41,99,132l138,32.05,233.21,69.68,63.4,24.92,61.8,28.49,161.74,90.54,94,57,37.62,29,58,54.93,19.34,23.91,53.2,42.72,75.23,39.67L1215.73,683"/><line class="cls-3" x1="708.16" y1="473.58" x2="605.57" y2="605.07"/><polygon class="cls-4" points="33.17 234.65 104.94 298.41 160.83 310.62 178.14 314.47 189.49 305.87 199.52 288.24 152.9 268.52 174.8 200.22 124.83 189.54 96.88 195.65 86.54 193.35 76.73 184.07 54.97 176.94 47.45 187.54 33.17 234.65"/><polygon class="cls-4" points="282.12 202.66 253.86 290.12 265.94 295.23 279.4 300.21 286.43 304.85 307.71 279.82 329.02 213.27 282.12 202.66"/><polygon class="cls-4" points="725.77 659.96 725.77 664.7 751.13 683.04 783.25 683.04 830.74 625.36 779.15 590.77 725.77 659.96"/><polygon class="cls-4" points="703.74 669.12 684.06 654.87 677.25 663.02 633.19 631.46 648.24 612.48 633.55 600.95 623.51 612.48 557.24 562.95 551.59 568.03 549.72 564.99 545.76 571.92 572.99 616.88 583.09 617.55 643.38 682 643.27 683.04 706.49 683.04 720.75 666.74 720.75 660.64 713.43 656.56 703.74 669.12"/><polygon class="cls-4" points="360.8 251.97 377.27 265.48 373.55 275.14 355.84 260.13 360.8 251.97"/><polyline class="cls-5" points="186.44 181.37 352.06 220.32 788.02 530.01"/><polyline class="cls-5" points="264.68 88.83 359.27 117.36 365.64 129.04 366.75 145.3 362.19 172.18 347 219.01"/><polyline class="cls-5" points="359.39 170.84 457.42 201.8 729.21 170.84"/><line class="cls-5" x1="726.64" y1="170.78" x2="867.89" y2="154.72"/><polyline class="cls-5" points="866.01 154.97 974 142.25 965.78 130.06 852.37 89.79 843.43 68.98"/><polyline class="cls-5" points="1059.18 163.96 1104.26 180.43 1187.99 220.16 1273.41 250.43"/><polyline class="cls-5" points="747.25 340.55 917.32 206.89 956.35 176.3 971.28 161.56 1007.65 226.96 1090.3 333.12"/><polyline class="cls-5" points="977.84 487.74 1028.47 520.39 1061.78 542.81 1168.15 603.58 1247.93 649.57 1302.18 683.04"/><line class="cls-5" x1="784.83" y1="527.04" x2="1007.62" y2="686.42"/><polyline class="cls-5" points="1189.27 486.68 1190.56 488.68 1297.1 630.49 1337.62 683.04"/><line class="cls-5" x1="1269.32" y1="249.6" x2="1374.43" y2="287.52"/><polyline class="cls-5" points="1087.02 329.04 1092.87 336.57 1190.72 489.04"/><path class="cls-4" d="M1179.67,216.29l-18.1,36.81m-24.13,45.31-18.89-12.61-13.37-19.57.26-11.07,19.15-10.3,7.87-2.31,12.85,1.8,16.26,8.75-24.13,45.31"/><polyline class="cls-5" points="1183.21 216.46 1132.9 307.3 1091.46 335.03"/><polygon class="cls-6" points="1002.43 255.61 1003 256.34 1009.2 251.94 1008.63 251.22 1009.15 250.85 1013.21 256 1011.44 257.25 1010.82 256.46 1012.03 255.61 1009.94 252.97 1007.14 254.95 1008.58 256.77 1009.37 256.21 1009.85 256.83 1007.72 258.34 1007.23 257.72 1008.02 257.16 1006.58 255.34 1003.78 257.33 1004.51 258.25 1003.99 258.62 1001.91 255.97 1002.43 255.61"/><path class="cls-6" d="M1014.13,257.4l0,0a.74.74,0,0,1,1.07.15.67.67,0,0,1-.14,1l-.05,0a.76.76,0,0,1-1.08-.15.67.67,0,0,1,.15-1m-7.06,4.09.55.7,4.11-2.91-.42-.79.4-.28,1.63,1.4-5,3.52.55.7-.52.37-1.85-2.34Z"/><path class="cls-6" d="M1010.19,265.4l0,0-.54.38-.53-.67,1.61-1.14.52.67-.2.15c-.58.41-.7,1-.09,1.79s1.13.94,1.72.53.52-.8.24-1.43l-.31-.65c-.54-1.16-.43-2,.49-2.68a2,2,0,0,1,2.9.63c.5.63.58,1.22.33,1.58l0,0,.47-.33.52.66-1.61,1.15-.53-.67.36-.26c.54-.38.56-.91,0-1.65s-1-.82-1.57-.44a1.06,1.06,0,0,0-.26,1.45l.3.61c.57,1.19.5,2.05-.43,2.71a2.18,2.18,0,0,1-3-.69,1.57,1.57,0,0,1-.31-1.7"/><path class="cls-6" d="M1015.49,267.88a3.3,3.3,0,0,1,4.74.44c.84,1.07.83,2.14.08,2.67a.86.86,0,0,1-1.24-.12.71.71,0,0,1,.15-1.09.93.93,0,0,1,1,0l0,0a2.25,2.25,0,0,0-.49-.9,2.06,2.06,0,0,0-2.92-.28l-.83.58c-1.09.77-1.35,1.84-.64,2.74a2,2,0,0,0,2.1.79l0,.52a2.7,2.7,0,0,1-3-.94c-1.17-1.49-.71-3.15,1-4.33"/><path class="cls-6" d="M1017.28,274.42l.55.7,6.49-4.6-.41-.79.39-.28,1.64,1.4-3.34,2.36,0,0a2,2,0,0,1,2.09.76c1,1.23.67,2.19-.67,3.13l-3,2.1.55.7-.52.37-1.84-2.33.52-.37.54.69,2.9-2.05c1-.67,1.12-1.34.52-2.1a1.39,1.39,0,0,0-1.9-.42l-3.28,2.33.55.7-.52.37-1.85-2.34Z"/><path class="cls-6" d="M1025.75,279.82l2,2.46.11-.08c1-.68,1.33-1.52.68-2.34a1.78,1.78,0,0,0-2.62-.12Zm-1.34-.64c1.68-1.2,3.57-1,4.62.29s.67,2.91-.82,4l-.26.19-2.71-3.44-.3.21c-1.12.8-1.34,1.87-.63,2.76a2.07,2.07,0,0,0,2.12.83l0,.54a2.82,2.82,0,0,1-3-1c-1.16-1.47-.72-3.13,1-4.32"/><path class="cls-6" d="M1026.47,286.05l.55.7,4.1-2.91-.41-.79.39-.28,1.62,1.38-1,.68,0,0a1.83,1.83,0,0,1,1.94.58,1,1,0,0,1-.13,1.6.8.8,0,0,1-1.16-.08.66.66,0,0,1,.09-1,.54.54,0,0,1,.66-.07l0,0a1,1,0,0,0-.15-.23,1.68,1.68,0,0,0-2-.26l-3.29,2.32.71.9-.52.36-2-2.53Z"/><path class="cls-6" d="M1030.63,291.28l0,0-.54.38-.53-.67,1.61-1.14.53.67-.21.15c-.58.41-.7,1-.09,1.79s1.13.94,1.72.52.52-.79.24-1.42l-.31-.65c-.54-1.16-.43-2,.49-2.69a2,2,0,0,1,2.91.64c.49.63.57,1.21.32,1.57l0,0,.47-.33.53.67-1.62,1.14-.53-.66.36-.26c.54-.38.56-.91,0-1.65s-1-.82-1.58-.44a1.06,1.06,0,0,0-.26,1.45l.3.61c.57,1.19.5,2-.43,2.71a2.18,2.18,0,0,1-3-.69,1.61,1.61,0,0,1-.31-1.71"/><path class="cls-6" d="M1034.61,295.55l3.89-2.76-.52-.66.55-.38.09.11c.41.52.64.51,1.05.37l1.13-.39.39.5-1.41,1,1,1.28-.55.39-1-1.27-4.26,3,1,1.28-.4.28a4.43,4.43,0,0,1-1.22-1.1c-.55-.7-.46-1.16.25-1.65"/><path class="cls-6" d="M1036.51,298.78l.55.69,4.11-2.9-.41-.8.39-.28,1.62,1.38-1,.68,0,0a1.79,1.79,0,0,1,1.93.57,1,1,0,0,1-.12,1.6.8.8,0,0,1-1.16-.08.66.66,0,0,1,.09-1,.56.56,0,0,1,.66-.07l0,0a1.22,1.22,0,0,0-.15-.23,1.69,1.69,0,0,0-2-.26l-3.28,2.33.7.89-.51.37-2-2.54Z"/><path class="cls-6" d="M1043.34,305.47l1-.68-.49-.62c-.8-1-1.42-1.11-2-.67l-.21.15c-.52.36-.51.89-.06,1.45a1.26,1.26,0,0,0,1.83.37m-2.51-2.87c1-.73,2.07-.49,3.36,1.15l.57.72.76-.54c.84-.59,1-1.29.4-2a2,2,0,0,0-.78-.67h0a.65.65,0,0,1-.29.69.73.73,0,0,1-1.06-.15.65.65,0,0,1,.19-1c.61-.43,1.76-.16,2.73,1.06a1.87,1.87,0,0,1-.31,3l-3.3,2.34.56.7-.41.29a1.88,1.88,0,0,1-.81-.61.91.91,0,0,1,.2-1.45l.06-.05,0,0a1.89,1.89,0,0,1-2.08-.81,1.62,1.62,0,0,1,.27-2.57"/><path class="cls-6" d="M1046.44,310.55a.72.72,0,0,1,1,.09.56.56,0,0,1-.15.86.69.69,0,0,1-.68.08l0,0a2.52,2.52,0,0,0,.47.85c.57.72,1.21.88,1.81.46s.58-.8.27-1.56l-.12-.31c-.43-1.08-.31-1.77.53-2.37a2.06,2.06,0,0,1,2.84.59l.35-.24c1-.75,1.23-1.58.6-2.38s-1.55-.9-2.58-.17l-5.76,4.08-1.3-1.64.52-.37.55.7,4.31-3.05-.55-.69.55-.39.54.69.25-.17a2.77,2.77,0,0,1,4,.62,2.47,2.47,0,0,1-.59,3.78l-.65.46-.31-.39c-.72-.91-1.39-1.09-1.91-.72s-.55.68-.27,1.42l.12.31c.45,1.09.37,1.88-.47,2.48a2.21,2.21,0,0,1-3.13-.67c-.85-1.07-.83-2-.25-2.38"/><path class="cls-6" d="M1052.85,314.14l1.94,2.47.12-.09c1-.68,1.33-1.52.68-2.35a1.79,1.79,0,0,0-2.62-.12Zm-1.34-.65c1.68-1.19,3.57-1,4.62.3s.66,2.91-.82,4l-.26.19-2.71-3.44-.3.21c-1.12.79-1.34,1.87-.64,2.76a2.08,2.08,0,0,0,2.13.83l0,.53a2.78,2.78,0,0,1-3-1c-1.17-1.47-.72-3.14,1-4.33"/><path class="cls-5" d="M68.84,153.63,38.58,214.12l-49,137m1074.2-185.55,32.15-68.28L917.29,44.6l-15-7.81M1139.91-9.47,1123,32.23l89.6,28.31m33.7,9.5-33.7-9.5,32-70m94.77,11.11L1332.68.2m49,43.36L1329.37,26.3m-23.83,62.83,23.83-62.83,9.94-24.66,34.82-.51m-1.5,106.07-67.09-18.07-19,54.77-9.67,7.76h-10.5l-45.86-15.52L1095.92,97.33l27-65.1L1010-9.47M1188,220.28l32.57-84.14L1246.27,70l59.27,19.09m59.61,65.12-50,110.47m66.5-146.91-16.5,36.44M1252,348.71l4.49-83.14,7.25-18.2M971.28,161.45l2.86-19,18.46-2.89,70.34,25.22M681.78,132.91l75.85-27.12L775.5,94.45,843.34,69l65-35.53,61.38-43M667.17,76.74l14.61,56.17,6.31,37.35m-327.91,8.45,5.19,1.24m382-129.24,41,10.43,5.2-3.47,8.06-12.18,1.91-15.65L792.34-9.47m-189.41,0L747.42,50.71l-8.16,7L573.34,101.56,378.21,112.75l-15.91,9.33M615.25.2,569,101.81M543.39-9.47,499.7,105.79M406.29-9.47,352.1,115.14M298.05-9.47,264.73,73.09,260.89,87.6M182-9.47,223.92,65l11.83,13.18,25.14,9.47,6.66,2M-9.83,298.12,24.8,196.07l23.07-47.38,15.61-35.43L100.82-20.08m657,350,4.33,18.52L980.26,489M639.07,424.19l122.45-95.64M822,461.06l-.29-9.75-87.17-60.77m111.59,87.39L822,461.06l-47.7,59.21m80.08-52-19.86,23.4M901,610.33l26.81-28.7,4.78-9.21-98.12-80.8-36.85,45.25M-14.64,134.38,188,181.45"/><path d="M534.77,237.54a.82.82,0,0,0,0-.18v-5a.44.44,0,0,0-.15-.25,26.61,26.61,0,0,0-4.22-2.41,20.41,20.41,0,0,0-4.31-1.44,30.26,30.26,0,0,0-5.1-.56,21.4,21.4,0,0,0-2.77.12,14.1,14.1,0,0,0-1.91.4c-.67.17-1.33.35-2,.57a12.81,12.81,0,0,0-2.92,1.62,10.1,10.1,0,0,0-3.86,4.93,9.52,9.52,0,0,0-.54,2.74,11.37,11.37,0,0,0,.08,2.61,7.7,7.7,0,0,0,2.69,4.59,12.4,12.4,0,0,0,4.2,2.38c1.56.54,3.15,1,4.73,1.51,2.16.64,4.39,1.06,6.5,1.86a6.24,6.24,0,0,1,1.83,1,3.3,3.3,0,0,1,0,5.23,5.61,5.61,0,0,1-2.46,1.2,20.5,20.5,0,0,1-2.36.24,13.63,13.63,0,0,1-5.9-.85,35.85,35.85,0,0,1-4.15-2.1c-.91-.49-1.75-1.1-2.62-1.66q-1-.66-2-1.29a1.46,1.46,0,0,0-.28-.14,1.76,1.76,0,0,0,0,.19c0,1.75,0,3.51,0,5.26a.37.37,0,0,0,.15.27c.51.31,1,.6,1.55.92a36.69,36.69,0,0,0,4.81,2.53,31.91,31.91,0,0,0,3.3,1.24,18.25,18.25,0,0,0,6.5.66,17.19,17.19,0,0,0,3.36-.54,15.52,15.52,0,0,0,9-6.56A8.42,8.42,0,0,0,537.3,250a9.53,9.53,0,0,0-6.35-7.26,50.91,50.91,0,0,0-5.87-1.62,56,56,0,0,1-6.12-1.69,6.73,6.73,0,0,1-2.11-1.05,3.39,3.39,0,0,1,.49-5.73,5.57,5.57,0,0,1,2.37-.59,17.79,17.79,0,0,1,5,.34,16,16,0,0,1,4.85,1.87c1.48.86,2.89,1.81,4.34,2.71l.88.55m-12.14,31.18h-1.74l-.33,0c-.65-.05-1.31-.08-2-.16a25,25,0,0,1-5.74-1.38,24.4,24.4,0,0,1-10.93-7.9,22.24,22.24,0,0,1-4.74-12,21.73,21.73,0,0,1,.42-6.53,22.49,22.49,0,0,1,6.25-11.35,25.67,25.67,0,0,1,22.94-6.81,24.52,24.52,0,0,1,14.44,8.56,22.07,22.07,0,0,1,5.09,12.42l.09,1v1.65a2.34,2.34,0,0,0,0,.26,19.49,19.49,0,0,1-.46,3.57,23.23,23.23,0,0,1-11.82,15.54,24.52,24.52,0,0,1-10.37,3.06l-1.1.09"/><path class="cls-7" d="M534.77,237.54l-.88-.55c-1.45-.9-2.86-1.85-4.34-2.71a16,16,0,0,0-4.85-1.87,17.79,17.79,0,0,0-5-.34,5.57,5.57,0,0,0-2.37.59,3.39,3.39,0,0,0-.49,5.73,6.73,6.73,0,0,0,2.11,1.05,56,56,0,0,0,6.12,1.69,50.91,50.91,0,0,1,5.87,1.62A9.53,9.53,0,0,1,537.3,250a8.38,8.38,0,0,1-1.34,6.61,15.46,15.46,0,0,1-9,6.55,16.5,16.5,0,0,1-3.35.55,18.05,18.05,0,0,1-6.51-.66,31.91,31.91,0,0,1-3.3-1.24,36.69,36.69,0,0,1-4.81-2.53c-.51-.32-1-.61-1.55-.92a.37.37,0,0,1-.15-.27c0-1.75,0-3.51,0-5.26a1.91,1.91,0,0,1,0-.2c.11.06.2.09.28.14l2,1.3c.87.55,1.71,1.17,2.62,1.66a35,35,0,0,0,4.14,2.1,13.7,13.7,0,0,0,5.91.85,18.86,18.86,0,0,0,2.37-.25,5.51,5.51,0,0,0,2.45-1.19,3.31,3.31,0,0,0,0-5.24,6.45,6.45,0,0,0-1.83-1c-2.11-.8-4.34-1.22-6.5-1.86-1.58-.48-3.17-1-4.73-1.51a12.57,12.57,0,0,1-4.2-2.38,7.7,7.7,0,0,1-2.69-4.58,11.48,11.48,0,0,1-.08-2.62,9.52,9.52,0,0,1,.54-2.74,10.1,10.1,0,0,1,3.86-4.93,12.81,12.81,0,0,1,2.92-1.62c.64-.22,1.31-.4,2-.57a12.72,12.72,0,0,1,1.91-.4,21.32,21.32,0,0,1,2.76-.12,30.27,30.27,0,0,1,5.11.56,19.85,19.85,0,0,1,4.31,1.44,26.61,26.61,0,0,1,4.22,2.41.38.38,0,0,1,.14.25c0,1.67,0,3.33,0,5a.82.82,0,0,1,0,.18"/><path class="cls-6" d="M563.39,229.24h2.12a1.48,1.48,0,0,0,1.62-1.54V227a1.49,1.49,0,0,0-1.62-1.54h-2.12Zm-2.56,4.44h1.08v-8.26h-1.08v-.69h4.93c1.79,0,2.92.84,2.92,2.53a2.45,2.45,0,0,1-2.26,2.48l1.73,3a1.63,1.63,0,0,0,1.53.94h.12v.69h-1a2,2,0,0,1-2-1.26L565,230h-1.58v3.72h1.07v.69h-3.63Z"/><path class="cls-6" d="M571.4,231.85v-3.64l-1-.18v-.52l2.43-.46v4.71c0,1.27.52,1.86,1.65,1.86.8,0,1.67-.43,1.67-1.34v-4.07l-1-.18v-.52l2.43-.46v6.32l1,.18v.53l-2.41.45v-1.27h-.06a2.21,2.21,0,0,1-2.15,1.27c-1.82,0-2.54-.89-2.54-2.68"/><path class="cls-6" d="M579.75,233.68h1v-5.47l-1-.18v-.52l2.41-.46v1.27h.06a2.15,2.15,0,0,1,2.11-1.27c1.28,0,2,.47,2.32,1.41h.06a2.35,2.35,0,0,1,2.27-1.41c1.81,0,2.51.91,2.51,2.69v3.94h1v.69h-3.45v-.69h1v-3.85c0-1.28-.53-1.87-1.62-1.87a1.45,1.45,0,0,0-1.63,1.35v4.37h1v.69H584.4v-.69h1v-3.85c0-1.28-.51-1.87-1.6-1.87-.84,0-1.65.44-1.65,1.35v4.37h1v.69h-3.47Z"/><path class="cls-6" d="M593.72,233.68h1v-5.47l-1-.18v-.52l2.4-.46v1.27h.06a2.15,2.15,0,0,1,2.11-1.27c1.29,0,2,.47,2.32,1.41h.06a2.36,2.36,0,0,1,2.28-1.41c1.8,0,2.5.91,2.5,2.69v3.94h1v.69H603v-.69h1v-3.85c0-1.28-.52-1.87-1.62-1.87a1.45,1.45,0,0,0-1.63,1.35v4.37h1v.69h-3.47v-.69h1v-3.85c0-1.28-.51-1.87-1.6-1.87-.83,0-1.65.44-1.65,1.35v4.37h1v.69h-3.47Z"/><path class="cls-6" d="M609.14,230.09h3.66v-.15c0-1.29-.56-2.17-1.78-2.17s-1.88.85-1.88,2.15Zm-1.52.7a3.43,3.43,0,0,1,3.4-3.74,3.1,3.1,0,0,1,3.22,3.37v.34h-5.1v.4a2.16,2.16,0,0,0,2.2,2.41,2.27,2.27,0,0,0,2.21-1.26l.55.33a3.08,3.08,0,0,1-3,1.89c-2.19,0-3.47-1.5-3.47-3.74"/><polygon class="cls-6" points="615.35 233.68 616.38 233.68 616.38 225.03 615.35 224.85 615.35 224.33 617.78 223.88 617.78 233.68 618.82 233.68 618.82 234.37 615.35 234.37 615.35 233.68"/><path class="cls-6" d="M621.18,233.65h-.06v.72h-1v-2.14h1v.27c0,.77.49,1.29,1.65,1.29s1.66-.34,1.66-1.12c0-.6-.41-1-1.2-1.16l-.83-.18c-1.47-.32-2.23-1-2.23-2.22s1-2.06,2.57-2.06c.93,0,1.54.33,1.72.79h.06v-.62h1v2.15h-1v-.48c0-.72-.5-1.09-1.59-1.09s-1.49.34-1.49,1,.44,1,1.21,1.2l.79.15c1.51.31,2.29,1,2.29,2.19s-1,2.14-2.72,2.14a2,2,0,0,1-1.83-.88"/><path class="cls-6" d="M633.07,231.44v-1.3a2,2,0,0,0-2-2.21c-.9,0-1.8.53-1.8,1.4v2.92c0,.87.9,1.4,1.8,1.4a2,2,0,0,0,2-2.21m-3.8,1.84h-.06l-.76,1.09h-.58V225l-1-.17v-.53l2.44-.45v4.43h.06a2.22,2.22,0,0,1,2.17-1.26c1.86,0,3.07,1.35,3.07,3.74s-1.21,3.74-3.07,3.74a2.31,2.31,0,0,1-2.23-1.25"/><path class="cls-6" d="M636.73,231.85v-3.64l-1-.18v-.52l2.44-.46v4.71c0,1.27.52,1.86,1.65,1.86.8,0,1.67-.43,1.67-1.34v-4.07l-1-.18v-.52l2.43-.46v6.32l1,.18v.53l-2.41.45v-1.27h-.06a2.21,2.21,0,0,1-2.15,1.27c-1.83,0-2.54-.89-2.54-2.68"/><path class="cls-6" d="M645.08,233.68h1v-5.47l-1-.18v-.52l2.41-.46v1.27h0a2,2,0,0,1,1.86-1.27c.87,0,1.44.43,1.44,1.19a.85.85,0,0,1-.86.94c-.57,0-.91-.33-.91-.76s.18-.58.38-.61v0a1.22,1.22,0,0,0-.32,0,1.77,1.77,0,0,0-1.61,1.56v4.38h1.32v.69h-3.76Z"/><path class="cls-6" d="M656.41,229.66v-.5a1.51,1.51,0,0,0-3,0v.5a1.51,1.51,0,0,0,3,0m-1.85,6.92h.73c1.38,0,2.21-.46,2.21-1.21s-.45-1-1.63-1h-2.32a1.19,1.19,0,0,0-.79,1.15c0,.7.67,1.07,1.8,1.07m-3-1c0-.75.76-1.23,1.56-1.41v-.06a1.19,1.19,0,0,1-1-1.21,1.45,1.45,0,0,1,1.3-1.35v-.06a2.19,2.19,0,0,1-1.5-2.11c0-1.46,1.22-2.36,2.94-2.36a3.42,3.42,0,0,1,2,.55c0-1.06.52-1.41,1.14-1.41a.73.73,0,0,1,.8.71.7.7,0,0,1-.79.7.77.77,0,0,1-.66-.29h-.05V228a2.06,2.06,0,0,1,.57,1.45c0,1.46-1.26,2.36-3,2.36a4.41,4.41,0,0,1-.83-.08c-.47.11-.89.41-.89.8s.35.62,1.17.62h1.72c1.78,0,2.59.7,2.59,1.9,0,1.4-1.3,2.28-3.8,2.28s-3.3-.66-3.3-1.68"/><path class="cls-6" d="M96.15,61.28h2.34a1.58,1.58,0,0,0,1.76-1.63v-.6a1.58,1.58,0,0,0-1.76-1.63H96.15Zm0-4.61h2.1a1.43,1.43,0,0,0,1.61-1.46V54.6a1.43,1.43,0,0,0-1.61-1.46h-2.1ZM93.6,61.34h1.08V53.08H93.6v-.69h5c1.82,0,2.85.93,2.85,2.28a2.27,2.27,0,0,1-2,2.29V57a2.42,2.42,0,0,1,2.37,2.33A2.6,2.6,0,0,1,99,62H93.6Z"/><path class="cls-6" d="M104.86,57.75h3.65V57.6c0-1.29-.55-2.17-1.78-2.17s-1.87.86-1.87,2.15Zm-1.52.7a3.43,3.43,0,0,1,3.39-3.74A3.1,3.1,0,0,1,110,58.08v.35h-5.1v.4a2.15,2.15,0,0,0,2.2,2.4A2.29,2.29,0,0,0,109.27,60l.54.33a3.06,3.06,0,0,1-3,1.89c-2.19,0-3.47-1.5-3.47-3.74"/><path class="cls-6" d="M111.27,61.34h1V55.87l-1-.18v-.52l2.4-.46V56h.06a2,2,0,0,1,1.85-1.27c.88,0,1.45.43,1.45,1.19a.85.85,0,0,1-.86.94c-.57,0-.91-.33-.91-.76s.18-.58.38-.61v0a1.91,1.91,0,0,0-.32,0A1.77,1.77,0,0,0,113.7,57v4.38H115V62h-3.76Z"/><polygon class="cls-6" points="117.68 61.34 118.72 61.34 118.72 52.7 117.68 52.52 117.68 51.99 120.12 51.54 120.12 61.34 121.15 61.34 121.15 62.03 117.68 62.03 117.68 61.34"/><path class="cls-6" d="M123.21,52.56v-.07a.87.87,0,0,1,1.74,0v.07a.87.87,0,0,1-1.74,0m-.86,8.78h1V55.87l-1-.18v-.52l2.43-.46v6.63h1V62h-3.47Z"/><path class="cls-6" d="M127,61.34h1V55.87l-1-.18v-.52l2.4-.46V56h.06a2.23,2.23,0,0,1,2.16-1.27c1.82,0,2.53.9,2.53,2.68v4h1V62h-3.46v-.69h1V57.49c0-1.27-.52-1.87-1.64-1.87-.81,0-1.68.43-1.68,1.34v4.38h1V62H127Z"/><path class="cls-6" d="M147.26,58.15V56.27c0-1.94-1.07-3.26-2.92-3.26s-2.91,1.32-2.91,3.26v1.88c0,2,1.06,3.26,2.91,3.26s2.92-1.31,2.92-3.26m-7.47-.94c0-3.11,1.84-5,4.55-5s4.55,1.87,4.55,5-1.84,5-4.55,5-4.55-1.87-4.55-5"/><path class="cls-6" d="M151.48,61.31h-.06V62h-1V59.89h1v.27c0,.78.5,1.29,1.65,1.29s1.66-.33,1.66-1.12c0-.59-.4-1-1.19-1.16l-.83-.18c-1.48-.31-2.23-1-2.23-2.22s1-2.06,2.56-2.06c.94,0,1.55.33,1.72.79h.06v-.62h1V57h-1v-.48c0-.72-.49-1.09-1.59-1.09-.95,0-1.48.34-1.48,1s.43,1,1.21,1.2l.78.15c1.52.32,2.29,1,2.29,2.19s-1,2.14-2.71,2.14a2,2,0,0,1-1.84-.88"/><path class="cls-6" d="M158.22,60.79V55.61h-1v-.73h.17c.78,0,.92-.21,1.07-.65l.38-1.23h.74v1.88h1.9v.73h-1.9v5.67h1.9v.53a5.33,5.33,0,0,1-1.87.3c-1,0-1.41-.38-1.41-1.32"/><polygon class="cls-6" points="162.37 61.34 163.41 61.34 163.41 52.7 162.37 52.52 162.37 51.99 164.81 51.54 164.81 58.7 164.86 58.7 166.03 57.45 167.85 55.57 166.88 55.57 166.88 54.88 170.04 54.88 170.04 55.57 168.97 55.57 166.95 57.56 169.56 61.34 170.34 61.34 170.34 62.03 167.11 62.03 167.11 61.34 167.98 61.34 166 58.41 164.81 59.61 164.81 61.34 165.84 61.34 165.84 62.03 162.37 62.03 162.37 61.34"/><path class="cls-6" d="M171.23,61.34h1V55.87l-1-.18v-.52l2.41-.46V56h.06a2,2,0,0,1,1.85-1.27c.87,0,1.44.43,1.44,1.19a.85.85,0,0,1-.86.94c-.57,0-.9-.33-.9-.76s.17-.58.38-.61v0a2.17,2.17,0,0,0-.32,0A1.77,1.77,0,0,0,173.67,57v4.38H175V62h-3.76Z"/><path class="cls-6" d="M179.31,57.75H183V57.6c0-1.29-.56-2.17-1.78-2.17s-1.88.86-1.88,2.15Zm-1.52.7a3.43,3.43,0,0,1,3.4-3.74,3.1,3.1,0,0,1,3.22,3.37v.35h-5.1v.4a2.15,2.15,0,0,0,2.2,2.4A2.3,2.3,0,0,0,183.73,60l.54.33a3.08,3.08,0,0,1-3,1.89c-2.18,0-3.47-1.5-3.47-3.74"/><path class="cls-6" d="M186.46,59.52V55.87l-1-.18v-.52l2.43-.46v4.71c0,1.27.53,1.86,1.65,1.86.8,0,1.68-.43,1.68-1.34V55.87l-1-.18v-.52l2.44-.46V61l1,.18v.53l-2.4.45V60.92h-.06A2.22,2.22,0,0,1,189,62.19c-1.82,0-2.54-.89-2.54-2.67"/><polygon class="cls-6" points="194.79 61.48 199 55.6 195.88 55.6 195.88 57.03 194.9 57.03 194.9 54.88 200.74 54.88 200.74 55.43 196.52 61.31 199.88 61.31 199.88 59.87 200.85 59.87 200.85 62.03 194.79 62.03 194.79 61.48"/><path class="cls-6" d="M124.31,77h-.08v.82h-1.16V75h1.16v.63c0,.93.62,1.57,2.15,1.57s2.32-.7,2.32-1.78c0-.93-.53-1.43-1.77-1.72l-.77-.18c-1.84-.43-2.93-1.27-2.93-2.89S124.51,68,126.48,68a2.27,2.27,0,0,1,2.13.93h.07v-.76h1.17v2.72h-1.17V70.3c0-.93-.6-1.47-2.14-1.47-1.36,0-2,.64-2,1.55s.58,1.43,1.91,1.76l.73.17c1.79.43,2.83,1.28,2.83,2.79,0,1.68-1.23,2.91-3.4,2.91a2.4,2.4,0,0,1-2.27-1"/><path class="cls-6" d="M132.44,76.6V71.43h-1v-.74h.18c.77,0,.92-.2,1.06-.64l.38-1.23h.75v1.87h1.89v.74h-1.89V77.1h1.89v.52a5,5,0,0,1-1.87.31c-1,0-1.41-.39-1.41-1.33"/><path class="cls-6" d="M141.16,75.84V74.55h-.92c-1.52,0-2,.47-2,1.29v.28c0,.69.51,1,1.34,1s1.59-.42,1.59-1.32m-4.43.21c0-1.37.93-2.1,3.36-2.1h1.07v-1a1.52,1.52,0,0,0-1.68-1.72,2.54,2.54,0,0,0-1.17.22v0a.8.8,0,0,1-.39,1.52.79.79,0,0,1-.84-.85c0-.81,1-1.61,2.85-1.61s2.63.84,2.63,2.26V77.2h1.05v.53a2.18,2.18,0,0,1-1.13.28,1.09,1.09,0,0,1-1.25-1.14v-.09h-.06A2.09,2.09,0,0,1,139,78c-1.46,0-2.27-.74-2.27-2"/><path class="cls-6" d="M145.53,76.6V71.43h-1v-.74h.18c.77,0,.92-.2,1.06-.64l.38-1.23h.74v1.87h1.9v.74h-1.9V77.1h1.9v.52a5,5,0,0,1-1.87.31c-1.05,0-1.41-.39-1.41-1.33"/><path class="cls-6" d="M150.78,68.38v-.07a.88.88,0,0,1,1.75,0v.07a.88.88,0,0,1-1.75,0m-.86,8.78h1V71.69l-1-.18V71l2.43-.45v6.63h1v.68h-3.47Z"/><path class="cls-6" d="M160,75.11V73.43c0-1.26-.61-2.16-2-2.16s-2,.9-2,2.16v1.68c0,1.26.62,2.16,2,2.16s2-.9,2-2.16m-5.45-.84A3.51,3.51,0,1,1,158,78a3.4,3.4,0,0,1-3.5-3.74"/><path class="cls-6" d="M162.85,77.16h1V71.69l-1-.18V71l2.4-.45V71.8h.06a2.23,2.23,0,0,1,2.16-1.27c1.82,0,2.53.9,2.53,2.68v4h1v.68h-3.46v-.68h1V73.31c0-1.28-.52-1.87-1.64-1.87-.81,0-1.68.43-1.68,1.34v4.38h1v.68h-3.47Z"/><path class="cls-8" d="M1056.69,248.18c14,0,25.31-10.73,25.31-24s-11.33-24-25.31-24-25.32,10.73-25.32,24,11.34,24,25.32,24"/><path class="cls-7" d="M1064.54,231.74a3.73,3.73,0,1,1,3.65-3.73,3.55,3.55,0,0,1-3.65,3.73m.61-10.28a5.76,5.76,0,0,0-4.89,2.43c.17-4.74,1.6-6.71,4.37-6.71a3.09,3.09,0,0,1,3.4,2.57h3.48c-.55-3.45-3.18-5.42-6.91-5.42-5.13,0-7.79,3.86-7.79,10.47,0,3.7.77,6.77,3.1,8.53a7.8,7.8,0,0,0,4.63,1.39c4.28,0,7.24-2.71,7.24-6.77a6.23,6.23,0,0,0-6.63-6.49m-9.41-3.38v-3.31H1042v19.51h3.7v-8.41h9.19v-3.18h-9.19v-4.61Z"/><polygon class="cls-6" points="871.38 81.04 872.46 81.04 872.46 72.78 871.38 72.78 871.38 72.09 874.12 72.09 879.36 79.67 879.41 79.67 879.41 72.78 878.34 72.78 878.34 72.09 881.35 72.09 881.35 72.78 880.28 72.78 880.28 81.73 879.08 81.73 873.38 73.47 873.32 73.47 873.32 81.04 874.4 81.04 874.4 81.73 871.38 81.73 871.38 81.04"/><path class="cls-6" d="M886.6,72.51v-.06a.8.8,0,0,1,1.6,0v.06a.8.8,0,0,1-1.6,0M888,79V77.31a1.88,1.88,0,0,0-2-2.15c-1.34,0-1.95.9-1.95,2.15V79c0,1.25.61,2.15,1.95,2.15A1.88,1.88,0,0,0,888,79m-4.13-6.49v-.06a.8.8,0,0,1,1.6,0v.06a.8.8,0,0,1-1.6,0m-1.33,5.64a3.51,3.51,0,1,1,3.5,3.74,3.4,3.4,0,0,1-3.5-3.74"/><polygon class="cls-6" points="890.66 81.04 891.7 81.04 891.7 72.4 890.66 72.22 890.66 71.69 893.1 71.24 893.1 81.04 894.13 81.04 894.13 81.73 890.66 81.73 890.66 81.04"/><path class="cls-6" d="M900.64,79.62V76.69c0-.87-.91-1.39-1.81-1.39a2,2,0,0,0-2,2.21V78.8a2,2,0,0,0,2,2.21c.9,0,1.81-.52,1.81-1.39m-5.31-1.47c0-2.38,1.21-3.74,3.07-3.74a2.25,2.25,0,0,1,2.18,1.26h.06V72.4l-1-.18v-.53l2.45-.45v9.5l1,.17v.53l-2.43.45V80.64h-.06a2.24,2.24,0,0,1-2.18,1.25c-1.86,0-3.07-1.35-3.07-3.74"/><path class="cls-6" d="M904.26,81h1V75.57l-1-.18v-.52l2.41-.46v1.27h.06a2.23,2.23,0,0,1,2.16-1.27c1.82,0,2.53.9,2.53,2.68v4h1v.69H909V81h1V77.19c0-1.27-.52-1.87-1.65-1.87-.8,0-1.67.43-1.67,1.34V81h1v.69h-3.47Z"/><path class="cls-6" d="M915.11,77.45h3.66V77.3c0-1.29-.56-2.17-1.78-2.17s-1.88.86-1.88,2.15Zm-1.52.7a3.43,3.43,0,0,1,3.4-3.74,3.1,3.1,0,0,1,3.22,3.37v.35h-5.1v.4a2.15,2.15,0,0,0,2.2,2.4,2.3,2.3,0,0,0,2.22-1.26l.53.33a3.06,3.06,0,0,1-3,1.89c-2.18,0-3.47-1.5-3.47-3.74"/><path class="cls-6" d="M921.52,81h1V75.57l-1-.18v-.52l2.41-.46v1.27H924a2,2,0,0,1,1.85-1.27c.87,0,1.44.43,1.44,1.19a.85.85,0,0,1-.86.94c-.57,0-.9-.33-.9-.76s.17-.58.38-.61v0a2.19,2.19,0,0,0-.33,0A1.77,1.77,0,0,0,924,76.66V81h1.32v.69h-3.76Z"/><path class="cls-6" d="M934.23,78.8V77.51a2,2,0,0,0-2-2.21c-.91,0-1.81.52-1.81,1.39v2.93c0,.87.9,1.39,1.81,1.39a2,2,0,0,0,2-2.21m-6.24,5h1V75.57l-1-.18v-.52l2.44-.46v1.26h.06a2.23,2.23,0,0,1,2.17-1.26c1.86,0,3.07,1.36,3.07,3.75s-1.21,3.74-3.07,3.74a2.23,2.23,0,0,1-2.17-1.26h-.06V83.8h1.32v.69H928Z"/><polygon class="cls-6" points="936.93 81.04 937.96 81.04 937.96 72.4 936.93 72.22 936.93 71.69 939.36 71.24 939.36 81.04 940.4 81.04 940.4 81.73 936.93 81.73 936.93 81.04"/><path class="cls-6" d="M946,79.73v-1.3H945c-1.51,0-2,.47-2,1.3V80c0,.69.51,1,1.34,1s1.59-.42,1.59-1.31m-4.43.2c0-1.36.93-2.09,3.37-2.09H946v-1a1.52,1.52,0,0,0-1.68-1.73,2.47,2.47,0,0,0-1.16.22v0a.8.8,0,0,1-.39,1.52.79.79,0,0,1-.85-.84c0-.82,1-1.62,2.86-1.62s2.62.84,2.62,2.27v4.4h1v.54a2.28,2.28,0,0,1-1.12.27c-.83,0-1.26-.45-1.26-1.14v-.08H946a2.08,2.08,0,0,1-2.17,1.22c-1.45,0-2.27-.74-2.27-2"/><path class="cls-6" d="M950.32,80.49V75.31h-1v-.73h.17c.78,0,.92-.21,1.07-.65L951,72.7h.74v1.88h1.89v.73h-1.89V81h1.89v.53a5.22,5.22,0,0,1-1.86.3c-1,0-1.42-.39-1.42-1.32"/><polygon class="cls-6" points="954.65 81.18 958.87 75.3 955.75 75.3 955.75 76.73 954.77 76.73 954.77 74.58 960.6 74.58 960.6 75.13 956.39 81.01 959.74 81.01 959.74 79.58 960.72 79.58 960.72 81.73 954.65 81.73 954.65 81.18"/><path class="cls-9" d="M1225.27,94.3c0,12.57-10.76,22.76-24,22.76s-24-10.19-24-22.76,10.77-22.76,24-22.76,24,10.19,24,22.76"/><path class="cls-7" d="M1212.56,87h-19.45a1.18,1.18,0,0,0,0,.26c1.1,2.21,2.19,4.43,3.32,6.62a1,1,0,0,0,.74.41c3.5,0,7,0,10.48,0a1.23,1.23,0,0,0,.87-.5c.71-1.11,1.36-2.26,2-3.39l2-3.39m-27.44-3V81.13c1.58,0,3.12,0,4.65,0a.79.79,0,0,1,.53.37A7.58,7.58,0,0,1,1191,83c.29.83.79,1.09,1.75,1.08,7,0,13.92,0,20.88,0,.22,0,.44,0,.66,0,1.39,0,2.08,1.1,1.42,2.27q-2.71,4.73-5.5,9.42a3.14,3.14,0,0,1-2.91,1.47c-3.52,0-7,0-10.56,0a1,1,0,0,0-1.09.59c-.27.57-.63,1.1-1,1.64s-.09.7.42.74c.22,0,.44,0,.66,0h17v2.88H1212c-5.74,0-11.5-.08-17.24,0-2.62.06-4.44-2.43-2.91-4.68.43-.63.7-1.37,1.18-2a2.14,2.14,0,0,0,.08-2.67c-1.59-3-3.08-6-4.57-9.08a1.06,1.06,0,0,0-1.18-.69c-.71,0-1.42,0-2.21,0"/><path class="cls-7" d="M1206.76,107.42a2.93,2.93,0,0,1,3.11-2.85,2.91,2.91,0,1,1-.1,5.81,2.93,2.93,0,0,1-3-3"/><path class="cls-7" d="M1194.34,104.57a2.91,2.91,0,1,1,0,5.81,2.91,2.91,0,1,1,0-5.81"/><path class="cls-6" d="M1277.14,237.14h2a1.39,1.39,0,0,0,1.54-1.43v-.53a1.38,1.38,0,0,0-1.54-1.42h-2Zm0-4H1279a1.24,1.24,0,0,0,1.4-1.28v-.53A1.24,1.24,0,0,0,1279,230h-1.84Zm-2.23,4.08h.94V230h-.94v-.61h4.32c1.6,0,2.5.81,2.5,2a2,2,0,0,1-1.72,2v0a2.12,2.12,0,0,1,2.07,2,2.27,2.27,0,0,1-2.49,2.34h-4.68Z"/><path class="cls-6" d="M1287.3,236v-1.13h-.81c-1.32,0-1.76.4-1.76,1.13v.24c0,.6.45.91,1.18.91s1.39-.36,1.39-1.15m-3.88.18c0-1.19.82-1.83,2.95-1.83h.93v-.88a1.34,1.34,0,0,0-1.47-1.52,2.2,2.2,0,0,0-1,.2v0a.68.68,0,0,1,.4.63.67.67,0,0,1-.74.7.68.68,0,0,1-.74-.74c0-.71.9-1.41,2.5-1.41s2.29.74,2.29,2v3.85h.92v.47a1.88,1.88,0,0,1-1,.24c-.73,0-1.1-.39-1.1-1v-.07h0a1.84,1.84,0,0,1-1.9,1.07c-1.28,0-2-.65-2-1.71"/><polygon class="cls-6" points="1290.31 237.19 1291.22 237.19 1291.22 229.63 1290.31 229.47 1290.31 229.01 1292.44 228.62 1292.44 234.88 1292.49 234.88 1293.51 233.78 1295.1 232.14 1294.25 232.14 1294.25 231.54 1297.02 231.54 1297.02 232.14 1296.09 232.14 1294.32 233.88 1296.6 237.19 1297.29 237.19 1297.29 237.79 1294.45 237.79 1294.45 237.19 1295.22 237.19 1293.48 234.63 1292.44 235.68 1292.44 237.19 1293.35 237.19 1293.35 237.79 1290.31 237.79 1290.31 237.19"/><path class="cls-6" d="M1299.15,234.05h3.2v-.14c0-1.12-.48-1.89-1.56-1.89s-1.64.75-1.64,1.88Zm-1.33.61a3,3,0,0,1,3-3.27,2.71,2.71,0,0,1,2.82,3v.3h-4.46V235a1.89,1.89,0,0,0,1.93,2.1A2,2,0,0,0,1303,236l.48.29a2.69,2.69,0,0,1-2.63,1.65,2.94,2.94,0,0,1-3-3.27"/><path class="cls-6" d="M1304.76,237.19h.91v-4.78l-.91-.16v-.46l2.11-.4v1.11h.05a1.72,1.72,0,0,1,1.62-1.11c.76,0,1.26.38,1.26,1a.73.73,0,0,1-.75.82c-.5,0-.79-.29-.79-.66s.15-.51.33-.53v0l-.28,0a1.55,1.55,0,0,0-1.42,1.36v3.83h1.16v.6h-3.29Z"/><path class="cls-6" d="M1310.58,239.36a.69.69,0,0,1,.76-.75.62.62,0,0,1,.66.67.51.51,0,0,1-.31.49v0a1.39,1.39,0,0,0,.3,0c.44,0,.88-.37,1.19-1.18l.25-.61-2.41-5.92h-.65v-.6h2.85v.6h-.9l1.68,4.46h0l1.68-4.46h-.9v-.6h2.34v.6h-.65l-2.69,6.62a2.14,2.14,0,0,1-1.93,1.59c-.9,0-1.32-.42-1.32-1"/><path class="cls-10" d="M983.68,168.09h0Z"/><path class="cls-10" d="M993,168.37h0Z"/><path class="cls-9" d="M1004,155.68c0,8.37-7.17,15.16-16,15.16s-16-6.79-16-15.16,7.17-15.16,16-15.16,16,6.79,16,15.16"/><path class="cls-7" d="M983.63,152.93v11.39a1,1,0,0,0,.35.77,1.15,1.15,0,0,0,1.59,0,1,1,0,0,0,.35-.77V152.93c.34-.11,1.63-1.2,1.63-1.55V146.8a.5.5,0,0,0-.17-.38.58.58,0,0,0-.82,0,.5.5,0,0,0-.17.38v3.56a.54.54,0,0,1-.17.39.56.56,0,0,1-.41.16.55.55,0,0,1-.4-.16.51.51,0,0,1-.18-.39V146.8a.47.47,0,0,0-.17-.38.56.56,0,0,0-.4-.17.57.57,0,0,0-.41.17.5.5,0,0,0-.17.38v3.56a.54.54,0,0,1-.17.39.61.61,0,0,1-.82,0,.54.54,0,0,1-.17-.39V146.8a.5.5,0,0,0-.17-.38.58.58,0,0,0-.41-.17.56.56,0,0,0-.4.17.48.48,0,0,0-.18.38v4.58c0,.35,1.53,1.44,1.87,1.55"/><path class="cls-7" d="M989.71,155.67H991v8.87a1,1,0,0,0,.34.77,1.17,1.17,0,0,0,.8.33,1.14,1.14,0,0,0,.8-.33,1,1,0,0,0,.35-.77V146.35a.48.48,0,0,0-.18-.38.56.56,0,0,0-.4-.17h-.42a2.85,2.85,0,0,0-2,.81,2.54,2.54,0,0,0-.85,1.93v6.85a.26.26,0,0,0,.08.19.29.29,0,0,0,.21.09"/><path class="cls-6" d="M997.52,180.87h2.05a1.39,1.39,0,0,0,1.54-1.43v-.53a1.39,1.39,0,0,0-1.54-1.42h-2.05Zm0-4h1.84a1.24,1.24,0,0,0,1.4-1.28V175a1.24,1.24,0,0,0-1.4-1.28h-1.84Zm-2.23,4.08h1V173.7h-1v-.61h4.33c1.59,0,2.5.81,2.5,2a2,2,0,0,1-1.73,2v0a2.12,2.12,0,0,1,2.07,2,2.27,2.27,0,0,1-2.49,2.34h-4.68Z"/><path class="cls-6" d="M1007.68,179.77v-1.13h-.8c-1.33,0-1.76.4-1.76,1.13V180c0,.6.44.91,1.17.91s1.39-.37,1.39-1.15m-3.88.18c0-1.19.82-1.83,3-1.83h.93v-.88a1.34,1.34,0,0,0-1.47-1.52,2.2,2.2,0,0,0-1,.2v0a.7.7,0,0,1-.34,1.33.69.69,0,0,1-.74-.74c0-.71.9-1.41,2.5-1.41s2.29.74,2.29,2V181h.92v.47a1.88,1.88,0,0,1-1,.24c-.73,0-1.1-.39-1.1-1v-.07h0a1.83,1.83,0,0,1-1.9,1.07c-1.27,0-2-.65-2-1.71"/><polygon class="cls-6" points="1010.69 180.92 1011.6 180.92 1011.6 173.36 1010.69 173.2 1010.69 172.74 1012.82 172.35 1012.82 178.61 1012.87 178.61 1013.89 177.51 1015.49 175.87 1014.63 175.87 1014.63 175.27 1017.4 175.27 1017.4 175.87 1016.47 175.87 1014.7 177.61 1016.98 180.92 1017.67 180.92 1017.67 181.52 1014.84 181.52 1014.84 180.92 1015.6 180.92 1013.87 178.36 1012.82 179.41 1012.82 180.92 1013.73 180.92 1013.73 181.52 1010.69 181.52 1010.69 180.92"/><path class="cls-6" d="M1019.53,177.78h3.2v-.14c0-1.12-.48-1.89-1.55-1.89s-1.65.75-1.65,1.88Zm-1.32.61a3,3,0,0,1,3-3.27,2.71,2.71,0,0,1,2.82,2.95v.3h-4.47v.35a1.89,1.89,0,0,0,1.93,2.1,2,2,0,0,0,1.94-1.1l.47.29a2.68,2.68,0,0,1-2.63,1.65c-1.91,0-3-1.31-3-3.27"/><path class="cls-6" d="M1025.15,180.92h.9v-4.78l-.9-.16v-.46l2.1-.4v1.11h0a1.73,1.73,0,0,1,1.62-1.11c.77,0,1.26.38,1.26,1a.73.73,0,0,1-.75.82c-.5,0-.79-.29-.79-.66s.15-.51.33-.53v0l-.28,0a1.54,1.54,0,0,0-1.41,1.36v3.83h1.16v.6h-3.29Z"/><path class="cls-6" d="M1031,183.09a.68.68,0,0,1,.75-.75.61.61,0,0,1,.66.66.52.52,0,0,1-.31.5v.05a1.45,1.45,0,0,0,.3,0c.44,0,.88-.37,1.2-1.18l.24-.62-2.41-5.91h-.65v-.6h2.85v.6h-.9l1.68,4.46h0l1.69-4.46h-.91v-.6h2.35v.6h-.65l-2.69,6.62a2.16,2.16,0,0,1-1.94,1.59c-.89,0-1.31-.42-1.31-1"/><path class="cls-9" d="M1346.29,373.92c0,12.56-10.76,22.76-24,22.76s-24-10.2-24-22.76,10.76-22.76,24-22.76,24,10.19,24,22.76"/><path class="cls-7" d="M1333.58,366.6h-19.45a1.3,1.3,0,0,0,0,.27c1.1,2.21,2.18,4.43,3.31,6.62a1,1,0,0,0,.75.4c3.5,0,7,0,10.48,0a1.19,1.19,0,0,0,.86-.5c.72-1.11,1.36-2.26,2-3.39l2-3.4m-27.45-3v-2.88c1.59,0,3.12,0,4.66,0a.82.82,0,0,1,.52.38,7.84,7.84,0,0,1,.75,1.47c.29.84.79,1.1,1.74,1.09,7-.05,13.92,0,20.88,0h.66c1.4.05,2.09,1.09,1.42,2.26-1.8,3.16-3.64,6.3-5.49,9.42a3.14,3.14,0,0,1-2.91,1.48c-3.52,0-7,0-10.56,0a1,1,0,0,0-1.1.6c-.27.57-.62,1.1-.94,1.64s-.1.69.42.74c.22,0,.44,0,.66,0h17v2.87H1333c-5.75,0-11.5-.08-17.24,0-2.62.05-4.44-2.43-2.91-4.68.43-.63.7-1.38,1.18-2a2.14,2.14,0,0,0,.08-2.67c-1.59-3-3.08-6-4.57-9.08a1.05,1.05,0,0,0-1.18-.69c-.71.05-1.43,0-2.22,0"/><path class="cls-7" d="M1327.78,387a2.93,2.93,0,0,1,3.11-2.85,2.91,2.91,0,1,1-.11,5.81,2.93,2.93,0,0,1-3-3"/><path class="cls-7" d="M1315.36,384.19a2.91,2.91,0,1,1,0,5.81,2.91,2.91,0,1,1,0-5.81"/><path class="cls-9" d="M1021.57,628.48c0,12.57-10.76,22.76-24,22.76s-24-10.19-24-22.76,10.77-22.76,24-22.76,24,10.19,24,22.76"/><path class="cls-7" d="M1008.86,621.17H989.41a1.18,1.18,0,0,0,0,.26c1.1,2.21,2.19,4.43,3.32,6.62a1,1,0,0,0,.74.41c3.5,0,7,0,10.48,0a1.23,1.23,0,0,0,.87-.5c.71-1.11,1.36-2.26,2-3.39s1.3-2.21,2-3.39m-27.44-3v-2.88c1.58,0,3.12,0,4.65,0a.81.81,0,0,1,.53.38,7.79,7.79,0,0,1,.74,1.47c.29.84.79,1.1,1.75,1.09,7,0,13.92,0,20.88,0h.66c1.39,0,2.09,1.1,1.42,2.27q-2.71,4.72-5.5,9.42a3.14,3.14,0,0,1-2.91,1.47c-3.52,0-7,0-10.56,0A1,1,0,0,0,992,632c-.27.57-.63,1.1-1,1.64s-.09.7.42.74c.22,0,.44,0,.66,0h17v2.88h-.88c-5.75,0-11.5-.08-17.25,0-2.62.06-4.44-2.43-2.91-4.68.44-.63.7-1.37,1.18-2a2.14,2.14,0,0,0,.08-2.67c-1.59-3-3.08-6-4.57-9.08a1.06,1.06,0,0,0-1.18-.69c-.71.05-1.42,0-2.21,0"/><path class="cls-7" d="M1003.06,641.6a2.93,2.93,0,0,1,3.11-2.85,2.91,2.91,0,1,1-.1,5.81,2.93,2.93,0,0,1-3-3"/><path class="cls-7" d="M990.64,638.75a2.91,2.91,0,1,1,0,5.81,2.91,2.91,0,1,1,0-5.81"/><path class="cls-9" d="M437.54,317.79c0,12.57-10.77,22.76-24,22.76s-24.05-10.19-24.05-22.76S400.22,295,413.5,295s24,10.19,24,22.76"/><path class="cls-7" d="M424.83,310.48H405.37a.87.87,0,0,0,.05.27c1.09,2.21,2.18,4.42,3.31,6.62a1,1,0,0,0,.75.4q5.24,0,10.48,0a1.25,1.25,0,0,0,.86-.49c.71-1.11,1.36-2.26,2-3.4l2-3.39m-27.45-3v-2.89c1.58,0,3.12,0,4.65,0a.76.76,0,0,1,.53.37,7.87,7.87,0,0,1,.74,1.48c.29.83.79,1.09,1.75,1.09,7-.05,13.92,0,20.88,0h.66c1.39.05,2.09,1.1,1.42,2.27q-2.72,4.73-5.5,9.42a3.13,3.13,0,0,1-2.9,1.47c-3.53,0-7.05,0-10.57,0a1,1,0,0,0-1.09.59c-.27.57-.63,1.1-.95,1.65s-.09.69.42.73c.22,0,.45,0,.66,0h17v2.87h-.88c-5.75,0-11.5-.08-17.25,0-2.62.05-4.44-2.44-2.91-4.69.44-.63.7-1.37,1.18-2a2.14,2.14,0,0,0,.08-2.68c-1.59-3-3.08-6-4.57-9.08a1.06,1.06,0,0,0-1.18-.69c-.71.06-1.42,0-2.21,0"/><path class="cls-7" d="M419,330.92a2.93,2.93,0,0,1,3.11-2.85,3,3,0,0,1,3,2.95,3,3,0,0,1-3.13,2.86,2.94,2.94,0,0,1-3-3"/><path class="cls-7" d="M406.6,328.07a2.91,2.91,0,1,1,0,5.81,3,3,0,0,1-3.08-2.91,3,3,0,0,1,3.07-2.9"/><path class="cls-9" d="M268.41,31.41c0,12.57-10.76,22.76-24,22.76s-24-10.19-24-22.76,10.77-22.76,24-22.76,24,10.19,24,22.76"/><path class="cls-7" d="M255.7,24.1H236.25a1.18,1.18,0,0,0,0,.26c1.1,2.21,2.18,4.43,3.31,6.62a1,1,0,0,0,.75.41c3.5,0,7,0,10.48,0a1.23,1.23,0,0,0,.87-.5c.71-1.11,1.35-2.26,2-3.39l2-3.39m-27.45-3V18.24c1.59,0,3.12,0,4.66,0a.77.77,0,0,1,.52.37,7.1,7.1,0,0,1,.75,1.48c.29.83.79,1.09,1.74,1.08,7-.05,13.93,0,20.89,0,.22,0,.43,0,.66,0,1.39,0,2.08,1.1,1.41,2.27-1.8,3.15-3.64,6.29-5.49,9.42a3.15,3.15,0,0,1-2.91,1.47c-3.52,0-7,0-10.56,0a1,1,0,0,0-1.1.59,17.8,17.8,0,0,1-.94,1.64c-.26.46-.09.7.42.74.22,0,.44,0,.66,0h17v2.88h-.88c-5.75,0-11.5-.08-17.24,0-2.62.06-4.44-2.43-2.91-4.68.43-.63.7-1.37,1.18-2a2.14,2.14,0,0,0,.08-2.67c-1.59-3-3.08-6-4.57-9.08a1.06,1.06,0,0,0-1.18-.69c-.71.05-1.42,0-2.22,0"/><path class="cls-7" d="M249.9,44.53A2.93,2.93,0,0,1,253,41.68a2.91,2.91,0,1,1-.11,5.81,2.93,2.93,0,0,1-3-3"/><path class="cls-7" d="M237.48,41.68a2.91,2.91,0,1,1,0,5.81,2.91,2.91,0,1,1,0-5.81"/><path class="cls-9" d="M1311.44,208.72c0,8.37-7.17,15.16-16,15.16s-16-6.79-16-15.16,7.17-15.16,16-15.16,16,6.79,16,15.16"/><path class="cls-7" d="M1291.06,206v11.39a1,1,0,0,0,.34.77,1.17,1.17,0,0,0,.8.33,1.14,1.14,0,0,0,.8-.33,1,1,0,0,0,.35-.77V206c.34-.11,1.63-1.2,1.63-1.55v-4.58a.51.51,0,0,0-.18-.38.55.55,0,0,0-.4-.16.57.57,0,0,0-.41.16.53.53,0,0,0-.17.38v3.57a.53.53,0,0,1-.17.38.61.61,0,0,1-.82,0,.53.53,0,0,1-.17-.38v-3.57a.5.5,0,0,0-.17-.38.55.55,0,0,0-.4-.16.56.56,0,0,0-.41.16.5.5,0,0,0-.17.38v3.57a.51.51,0,0,1-.18.38.55.55,0,0,1-.4.16.56.56,0,0,1-.41-.16.53.53,0,0,1-.17-.38v-3.57a.53.53,0,0,0-.17-.38.61.61,0,0,0-.82,0,.53.53,0,0,0-.17.38v4.58c0,.35,1.53,1.44,1.87,1.55"/><path class="cls-7" d="M1297.14,208.7h1.31v8.88a1,1,0,0,0,.34.77,1.16,1.16,0,0,0,.8.32,1.13,1.13,0,0,0,.8-.32,1,1,0,0,0,.34-.77v-18.2a.5.5,0,0,0-.17-.38.55.55,0,0,0-.4-.16h-.42a2.82,2.82,0,0,0-2,.8,2.56,2.56,0,0,0-.85,1.94v6.85a.29.29,0,0,0,.08.19.32.32,0,0,0,.21.08"/><path class="cls-6" d="M1265.63,411.21h-.08V412h-1.16v-2.83h1.16v.63c0,.93.62,1.57,2.15,1.57s2.32-.7,2.32-1.78-.53-1.43-1.77-1.72l-.77-.18c-1.84-.43-2.93-1.27-2.93-2.89s1.28-2.61,3.25-2.61a2.27,2.27,0,0,1,2.13.93h.07v-.76h1.17v2.72H1270v-.63c0-.93-.6-1.47-2.14-1.47-1.36,0-2,.64-2,1.55s.58,1.43,1.91,1.77l.73.16c1.79.43,2.83,1.28,2.83,2.79,0,1.68-1.23,2.91-3.4,2.91a2.39,2.39,0,0,1-2.27-1"/><path class="cls-6" d="M1273.66,409.52v-3.64l-1-.18v-.52l2.44-.46v4.71c0,1.27.52,1.86,1.65,1.86.8,0,1.67-.43,1.67-1.34v-4.07l-1-.18v-.52l2.43-.46V411l1,.18v.53l-2.41.45v-1.27h-.06a2.22,2.22,0,0,1-2.16,1.27c-1.82,0-2.53-.89-2.53-2.68"/><path class="cls-6" d="M1288.1,409.11v-1.3a2,2,0,0,0-2-2.21c-.91,0-1.81.53-1.81,1.4v2.92c0,.87.9,1.4,1.81,1.4a2,2,0,0,0,2-2.21m-6.24,5h1v-8.23l-1-.18v-.52l2.44-.46V406h.06a2.23,2.23,0,0,1,2.17-1.26c1.87,0,3.08,1.35,3.08,3.74s-1.21,3.74-3.08,3.74a2.24,2.24,0,0,1-2.17-1.25h-.06v3.16h1.32v.69h-3.76Z"/><path class="cls-6" d="M1292.59,407.76h3.66v-.15c0-1.29-.55-2.17-1.78-2.17s-1.88.85-1.88,2.15Zm-1.52.7a3.43,3.43,0,0,1,3.4-3.74,3.1,3.1,0,0,1,3.22,3.37v.34h-5.1v.4a2.16,2.16,0,0,0,2.2,2.41A2.3,2.3,0,0,0,1297,410l.54.33a3.07,3.07,0,0,1-3,1.89c-2.19,0-3.48-1.5-3.48-3.74"/><path class="cls-6" d="M1299,411.35h1v-5.47l-1-.18v-.52l2.41-.46V406h.06a2,2,0,0,1,1.85-1.27c.87,0,1.44.43,1.44,1.19a.85.85,0,0,1-.86.94c-.57,0-.9-.33-.9-.76s.17-.58.38-.61v0a1.27,1.27,0,0,0-.32,0,1.77,1.77,0,0,0-1.62,1.56v4.38h1.32V412H1299Z"/><path class="cls-6" d="M1305.62,411.35h1v-5.47l-1-.18v-.52l2.41-.46V406h.06a2.15,2.15,0,0,1,2.11-1.27c1.28,0,2,.47,2.32,1.41h.06a2.35,2.35,0,0,1,2.27-1.41c1.81,0,2.51.91,2.51,2.69v3.94h1V412h-3.45v-.68h1V407.5c0-1.28-.53-1.87-1.62-1.87a1.45,1.45,0,0,0-1.63,1.35v4.37h1V412h-3.47v-.68h1V407.5c0-1.28-.51-1.87-1.61-1.87-.83,0-1.64.44-1.64,1.35v4.37h1V412h-3.47Z"/><path class="cls-6" d="M1323.94,410v-1.3H1323c-1.52,0-2,.47-2,1.3v.27c0,.69.51,1,1.34,1s1.59-.42,1.59-1.31m-4.43.2c0-1.36.94-2.1,3.37-2.1h1.06v-1a1.51,1.51,0,0,0-1.67-1.73,2.51,2.51,0,0,0-1.17.22v0a.8.8,0,0,1-.39,1.52.79.79,0,0,1-.85-.85c0-.81,1-1.61,2.86-1.61s2.62.84,2.62,2.26v4.41h1.05v.54a2.22,2.22,0,0,1-1.12.27,1.09,1.09,0,0,1-1.25-1.14V411H1324a2.1,2.1,0,0,1-2.17,1.23c-1.46,0-2.28-.74-2.28-2"/><path class="cls-6" d="M1327.59,411.35h1v-5.47l-1-.18v-.52l2.4-.46V406h.06a2,2,0,0,1,1.85-1.27c.88,0,1.45.43,1.45,1.19a.85.85,0,0,1-.86.94c-.57,0-.91-.33-.91-.76s.18-.58.38-.61v0a1.22,1.22,0,0,0-.32,0A1.77,1.77,0,0,0,1330,407v4.38h1.33V412h-3.76Z"/><polygon class="cls-6" points="1334 411.35 1335.04 411.35 1335.04 402.7 1334 402.52 1334 402 1336.44 401.55 1336.44 408.71 1336.49 408.71 1337.66 407.45 1339.48 405.57 1338.51 405.57 1338.51 404.89 1341.67 404.89 1341.67 405.57 1340.6 405.57 1338.58 407.56 1341.19 411.35 1341.97 411.35 1341.97 412.04 1338.74 412.04 1338.74 411.35 1339.61 411.35 1337.63 408.42 1336.44 409.62 1336.44 411.35 1337.47 411.35 1337.47 412.04 1334 412.04 1334 411.35"/><path class="cls-6" d="M1344.1,407.76h3.66v-.15c0-1.29-.55-2.17-1.78-2.17s-1.88.85-1.88,2.15Zm-1.51.7a3.42,3.42,0,0,1,3.39-3.74,3.1,3.1,0,0,1,3.23,3.37v.34h-5.11v.4a2.16,2.16,0,0,0,2.2,2.41,2.3,2.3,0,0,0,2.22-1.26l.54.33a3.07,3.07,0,0,1-3,1.89c-2.19,0-3.47-1.5-3.47-3.74"/><path class="cls-6" d="M1351.36,410.79v-5.17h-1v-.73h.18c.77,0,.92-.21,1.06-.65L1352,403h.75v1.88h1.89v.73h-1.89v5.67h1.89v.52a5,5,0,0,1-1.87.31c-1,0-1.41-.39-1.41-1.33"/><path class="cls-11" d="M1174.3,186.32c0,8.37-7.16,15.15-16,15.15s-16-6.78-16-15.15,7.16-15.16,16-15.16,16,6.78,16,15.16"/><path class="cls-7" d="M1146.59,183.41c3.72-1.92,11.14-5.69,11.28-5.7s11.3,5.56,11.37,5.63,0,5.26,0,7.75h-2v-6.68l-3.42,1.77c-1.8.93-5.82,2.93-6,2.92s-7.43-3.76-11.18-5.69"/><path class="cls-7" d="M1150.7,187.57c2.13,1.08,6.8,3.47,7.15,3.48s6.93-3.29,7.25-3.44c0,1.24-.14,3.76-.14,3.76l-7,3.6-7.09-3.66s-.09-2.33-.14-3.74"/><path class="cls-11" d="M1114.85,152.78c0,8.38-7.17,15.16-16,15.16s-16-6.78-16-15.16,7.17-15.15,16-15.15,16,6.78,16,15.15"/><path class="cls-7" d="M1087.13,149.88c3.72-1.92,11.15-5.69,11.28-5.7s11.31,5.56,11.38,5.63,0,5.26,0,7.75h-2v-6.68l-3.42,1.77c-1.8.93-5.83,2.93-6,2.91s-7.44-3.75-11.19-5.68"/><path class="cls-7" d="M1091.25,154c2.12,1.08,6.8,3.47,7.15,3.48s6.93-3.3,7.25-3.44c0,1.23-.14,3.75-.14,3.75l-7,3.61-7.08-3.66s-.09-2.33-.14-3.74"/><polygon class="cls-6" points="1059 132.29 1059.94 132.29 1059.94 125.08 1059 125.08 1059 124.47 1062.17 124.47 1062.17 125.08 1061.23 125.08 1061.23 128.99 1061.28 128.99 1062.52 127.67 1065.04 125.08 1064.05 125.08 1064.05 124.47 1066.85 124.47 1066.85 125.08 1065.99 125.08 1063.31 127.79 1066.37 132.29 1067.24 132.29 1067.24 132.9 1064.01 132.9 1064.01 132.29 1064.88 132.29 1062.43 128.64 1061.23 129.87 1061.23 132.29 1062.17 132.29 1062.17 132.9 1059 132.9 1059 132.29"/><path class="cls-6" d="M1068.85,124.62v-.06a.77.77,0,0,1,1.53,0v.06a.77.77,0,0,1-1.53,0m-.75,7.67h.9v-4.77l-.9-.16v-.46l2.13-.4v5.79h.9v.61h-3Z"/><path class="cls-6" d="M1072.17,132.29h.9v-4.77l-.9-.16v-.46l2.1-.4v1.11h0a2,2,0,0,1,1.89-1.11c1.59,0,2.22.78,2.22,2.34v3.45h.9v.61h-3v-.61h.89v-3.36c0-1.12-.46-1.63-1.44-1.63-.7,0-1.46.37-1.46,1.17v3.82h.9v.61h-3Z"/><path class="cls-6" d="M1085,131.05v-2.56c0-.76-.79-1.22-1.58-1.22a1.72,1.72,0,0,0-1.75,1.93v1.14a1.72,1.72,0,0,0,1.75,1.93c.79,0,1.58-.46,1.58-1.22m-4.64-1.28c0-2.09,1.06-3.27,2.69-3.27a2,2,0,0,1,1.9,1.1h0v-2.86l-.92-.16v-.46l2.15-.4V132l.9.16v.45l-2.13.4v-1.1h0a1.94,1.94,0,0,1-1.9,1.1c-1.63,0-2.69-1.18-2.69-3.27"/><path class="cls-6" d="M1089.48,129.15h3.2V129c0-1.12-.49-1.89-1.56-1.89s-1.64.75-1.64,1.88Zm-1.33.62a3,3,0,0,1,3-3.27,2.71,2.71,0,0,1,2.82,2.95v.3h-4.46v.35a1.88,1.88,0,0,0,1.92,2.1,2,2,0,0,0,1.94-1.1l.47.29a2.68,2.68,0,0,1-2.62,1.65,2.94,2.94,0,0,1-3-3.27"/><path class="cls-6" d="M1095.09,132.29h.91v-4.77l-.91-.16v-.46l2.11-.4v1.11h0a1.72,1.72,0,0,1,1.62-1.11c.76,0,1.26.37,1.26,1a.74.74,0,0,1-.75.82c-.5,0-.79-.29-.79-.67s.15-.5.33-.53v0a1,1,0,0,0-.28,0,1.56,1.56,0,0,0-1.42,1.37v3.82h1.16v.61h-3.29Z"/><path class="cls-6" d="M1103.87,128.69c0-2.82,1.55-4.36,3.89-4.36,1.34,0,2,.43,2.25.9h.08v-.76h1V127h-1v-.58c0-.88-.79-1.37-2.14-1.37-1.81,0-2.65,1.09-2.65,2.81v1.7a2.45,2.45,0,0,0,2.47,2.75c1.29,0,2.18-.64,2.18-1.76V129.4h-1.52v-.61H1112v.61h-.78v3.5h-.47l-.65-1.19h0a2.53,2.53,0,0,1-2.44,1.33c-2.26,0-3.76-1.64-3.76-4.35"/><path class="cls-6" d="M1117.12,131.15V130h-.8c-1.33,0-1.76.41-1.76,1.14v.24c0,.6.45.9,1.17.9s1.39-.36,1.39-1.14m-3.87.18c0-1.2.81-1.84,2.94-1.84h.93v-.88a1.32,1.32,0,0,0-1.46-1.51,2.08,2.08,0,0,0-1,.2v0a.7.7,0,0,1-.35,1.33.69.69,0,0,1-.74-.74c0-.71.91-1.41,2.5-1.41s2.3.73,2.3,2v3.85h.91v.47a2,2,0,0,1-1,.24,1,1,0,0,1-1.09-1V132h0a1.84,1.84,0,0,1-1.9,1.07c-1.28,0-2-.65-2-1.71"/><path class="cls-6" d="M1120.31,132.29h.91v-4.77l-.91-.16v-.46l2.11-.4v1.11h0a1.72,1.72,0,0,1,1.62-1.11c.76,0,1.26.37,1.26,1a.73.73,0,0,1-.75.82c-.5,0-.79-.29-.79-.67s.15-.5.33-.53v0a.94.94,0,0,0-.28,0,1.56,1.56,0,0,0-1.42,1.37v3.82h1.17v.61h-3.3Z"/><path class="cls-6" d="M1130.75,131.05v-2.56c0-.76-.79-1.22-1.58-1.22a1.71,1.71,0,0,0-1.75,1.93v1.14a1.71,1.71,0,0,0,1.75,1.93c.79,0,1.58-.46,1.58-1.22m-4.64-1.28c0-2.09,1.06-3.27,2.69-3.27a2,2,0,0,1,1.9,1.1h0v-2.86l-.92-.16v-.46l2.14-.4V132l.91.16v.45l-2.13.4v-1.1h0a2,2,0,0,1-1.9,1.1c-1.63,0-2.69-1.18-2.69-3.27"/><path class="cls-6" d="M1135.2,129.15h3.2V129c0-1.12-.48-1.89-1.55-1.89s-1.65.75-1.65,1.88Zm-1.32.62a3,3,0,0,1,3-3.27,2.71,2.71,0,0,1,2.82,2.95v.3h-4.47v.35a1.89,1.89,0,0,0,1.93,2.1,2,2,0,0,0,1.94-1.1l.47.29a2.68,2.68,0,0,1-2.63,1.65c-1.91,0-3-1.31-3-3.27"/><path class="cls-6" d="M1140.82,132.29h.9v-4.77l-.9-.16v-.46l2.1-.4v1.11h0a2,2,0,0,1,1.89-1.11c1.59,0,2.22.78,2.22,2.34v3.45h.9v.61h-3v-.61h.89v-3.36c0-1.12-.46-1.63-1.44-1.63-.7,0-1.46.37-1.46,1.17v3.82h.9v.61h-3Z"/><path class="cls-6" d="M1133.64,152.94h-.06v.73h-1v-2.48h1v.56c0,.81.53,1.37,1.87,1.37s2-.61,2-1.55-.46-1.26-1.54-1.51l-.68-.16c-1.61-.37-2.56-1.11-2.56-2.52s1.12-2.28,2.84-2.28a2,2,0,0,1,1.86.81h.06v-.67h1v2.38h-1v-.56c0-.8-.52-1.28-1.87-1.28-1.19,0-1.77.56-1.77,1.36s.51,1.25,1.67,1.54l.64.15c1.56.37,2.47,1.12,2.47,2.43,0,1.48-1.07,2.55-3,2.55a2.09,2.09,0,0,1-2-.87"/><path class="cls-6" d="M1141.29,149.93h3.21v-.14c0-1.12-.49-1.89-1.56-1.89s-1.65.75-1.65,1.88Zm-1.32.61a3,3,0,0,1,3-3.27,2.71,2.71,0,0,1,2.82,2.94v.31h-4.47v.35a1.89,1.89,0,0,0,1.93,2.1,2,2,0,0,0,1.94-1.1l.47.29a2.68,2.68,0,0,1-2.63,1.65c-1.91,0-3-1.31-3-3.27"/><path class="cls-6" d="M1146.86,150.54a3,3,0,0,1,3.16-3.27c1.39,0,2.27.64,2.27,1.51a.79.79,0,0,1-.83.86.74.74,0,0,1-.81-.76.8.8,0,0,1,.53-.76v-.05a2.36,2.36,0,0,0-1-.17,1.91,1.91,0,0,0-2,2v1a1.87,1.87,0,0,0,1.9,2.09,2,2,0,0,0,1.9-1.1l.46.28a2.55,2.55,0,0,1-2.53,1.66,2.94,2.94,0,0,1-3.05-3.27"/><path class="cls-6" d="M1158.15,151.28V149.8a1.65,1.65,0,0,0-1.71-1.88c-1.18,0-1.71.79-1.71,1.88v1.48c0,1.1.53,1.88,1.71,1.88s1.71-.78,1.71-1.88m-4.77-.74a3.07,3.07,0,1,1,3.06,3.27,3,3,0,0,1-3.06-3.27"/><path class="cls-6" d="M1160.68,153.06h.9v-4.78l-.9-.15v-.46l2.1-.4v1.11h0a2,2,0,0,1,1.89-1.11c1.59,0,2.22.79,2.22,2.34v3.45h.9v.61h-3v-.61h.89V149.7c0-1.11-.46-1.63-1.44-1.63-.7,0-1.46.37-1.46,1.17v3.82h.9v.61h-3Z"/><path class="cls-6" d="M1173.53,151.82v-2.56c0-.76-.79-1.22-1.58-1.22a1.72,1.72,0,0,0-1.75,1.93v1.14A1.72,1.72,0,0,0,1172,153c.79,0,1.58-.46,1.58-1.22m-4.64-1.28c0-2.09,1.06-3.27,2.69-3.27a2,2,0,0,1,1.9,1.1h0v-2.86l-.92-.16v-.46l2.15-.4v8.31l.9.16v.46l-2.13.39v-1.09h0a2,2,0,0,1-1.9,1.09c-1.63,0-2.69-1.18-2.69-3.27"/><path class="cls-6" d="M1180.52,151.92v-1.14h-.8c-1.33,0-1.76.41-1.76,1.14v.24c0,.6.45.9,1.17.9s1.39-.36,1.39-1.14m-3.87.18c0-1.2.82-1.84,2.95-1.84h.92v-.88a1.32,1.32,0,0,0-1.46-1.51,2.08,2.08,0,0,0-1,.2v0a.7.7,0,0,1-.35,1.33.69.69,0,0,1-.74-.74c0-.71.91-1.41,2.51-1.41s2.29.74,2.29,2v3.85h.92v.47a2,2,0,0,1-1,.24,1,1,0,0,1-1.09-1v-.07h0a1.84,1.84,0,0,1-1.9,1.07c-1.28,0-2-.65-2-1.71"/><path class="cls-6" d="M1183.72,153.06h.9v-4.78l-.9-.15v-.46l2.1-.4v1.11h0a1.73,1.73,0,0,1,1.62-1.11c.77,0,1.26.37,1.26,1a.74.74,0,0,1-.75.82c-.5,0-.79-.29-.79-.67s.15-.5.33-.53v0a1.47,1.47,0,0,0-.28,0,1.55,1.55,0,0,0-1.41,1.37v3.82H1187v.61h-3.29Z"/><path class="cls-6" d="M1189.53,155.24a.69.69,0,0,1,.76-.75.61.61,0,0,1,.66.66.52.52,0,0,1-.31.5v0a1.45,1.45,0,0,0,.3,0c.44,0,.88-.37,1.19-1.18l.25-.62L1190,148h-.65v-.6h2.85v.6h-.9l1.68,4.45h0l1.69-4.45h-.91v-.6h2.35v.6h-.65l-2.69,6.61a2.16,2.16,0,0,1-1.94,1.6c-.89,0-1.32-.42-1.32-1"/><path class="cls-6" d="M1133.64,167.44h-.06v.72h-1v-2.47h1v.55c0,.81.53,1.38,1.87,1.38s2-.62,2-1.56-.46-1.25-1.54-1.51l-.68-.15c-1.61-.38-2.56-1.11-2.56-2.53s1.12-2.28,2.84-2.28a2,2,0,0,1,1.86.81h.06v-.66h1v2.37h-1v-.55c0-.81-.52-1.28-1.87-1.28-1.19,0-1.77.55-1.77,1.35s.51,1.26,1.67,1.55l.64.14c1.56.38,2.47,1.13,2.47,2.44,0,1.47-1.07,2.55-3,2.55a2.09,2.09,0,0,1-2-.87"/><path class="cls-6" d="M1140,165a3,3,0,0,1,3.16-3.27c1.39,0,2.27.63,2.27,1.5a.79.79,0,0,1-.83.86.74.74,0,0,1-.81-.76.81.81,0,0,1,.53-.76v-.05a2.52,2.52,0,0,0-1-.17,1.92,1.92,0,0,0-2,2v1a1.88,1.88,0,0,0,1.9,2.09,2,2,0,0,0,1.9-1.1l.46.28a2.54,2.54,0,0,1-2.53,1.67,2.94,2.94,0,0,1-3-3.27"/><path class="cls-6" d="M1146.48,167.56h.9V160l-.9-.16v-.45l2.12-.4v3.89h.06a1.92,1.92,0,0,1,1.86-1.12c1.59,0,2.22.79,2.22,2.35v3.45h.9v.6h-3v-.6h.89v-3.37c0-1.11-.46-1.63-1.44-1.63-.7,0-1.47.38-1.47,1.17v3.83h.91v.6h-3Z"/><path class="cls-6" d="M1159.41,165.77V164.3c0-1.1-.54-1.88-1.71-1.88s-1.71.78-1.71,1.88v1.47c0,1.1.54,1.88,1.71,1.88s1.71-.78,1.71-1.88m-4.77-.73a3.07,3.07,0,1,1,3.06,3.27,3,3,0,0,1-3.06-3.27"/><path class="cls-6" d="M1166.78,165.77V164.3c0-1.1-.53-1.88-1.7-1.88s-1.71.78-1.71,1.88v1.47c0,1.1.53,1.88,1.71,1.88s1.7-.78,1.7-1.88M1162,165a3.07,3.07,0,1,1,3.07,3.27A3,3,0,0,1,1162,165"/><polygon class="cls-6" points="1169.13 167.56 1170.04 167.56 1170.04 160 1169.13 159.84 1169.13 159.39 1171.26 158.99 1171.26 167.56 1172.17 167.56 1172.17 168.16 1169.13 168.16 1169.13 167.56"/><path class="cls-11" d="M968.68,266.75c0,8.37-7.17,15.16-16,15.16s-16-6.79-16-15.16,7.17-15.16,16-15.16,16,6.79,16,15.16"/><path class="cls-7" d="M941,263.85c3.72-1.92,11.15-5.69,11.28-5.7s11.31,5.56,11.38,5.63,0,5.26,0,7.75h-2v-6.68l-3.42,1.77c-1.8.93-5.82,2.93-6,2.91s-7.44-3.75-11.19-5.68"/><path class="cls-7" d="M945.08,268c2.12,1.08,6.8,3.47,7.15,3.48s6.93-3.3,7.25-3.44c0,1.23-.14,3.75-.14,3.75l-7,3.61-7.08-3.66s-.09-2.33-.14-3.74"/><polygon class="cls-6" points="898.97 301.68 899.92 301.68 899.92 294.46 898.97 294.46 898.97 293.86 901.41 293.86 903.89 298.85 903.95 298.85 906.5 293.86 908.82 293.86 908.82 294.46 907.87 294.46 907.87 301.68 908.82 301.68 908.82 302.28 905.64 302.28 905.64 301.68 906.59 301.68 906.59 295.12 906.53 295.12 905.87 296.54 903.59 300.89 901.38 296.54 900.72 295.12 900.67 295.12 900.67 301.68 901.61 301.68 901.61 302.28 898.97 302.28 898.97 301.68"/><path class="cls-6" d="M913.91,300.53V299.4h-.8c-1.33,0-1.76.41-1.76,1.13v.25c0,.6.44.9,1.17.9s1.39-.36,1.39-1.15m-3.88.18c0-1.19.82-1.83,3-1.83h.93V298a1.32,1.32,0,0,0-1.47-1.51,2.21,2.21,0,0,0-1,.19v0a.64.64,0,0,1,.4.62.66.66,0,0,1-.74.7.69.69,0,0,1-.74-.73c0-.71.9-1.41,2.5-1.41s2.29.73,2.29,2v3.85h.92v.48a2,2,0,0,1-1,.24,1,1,0,0,1-1.1-1v-.08h-.05a1.82,1.82,0,0,1-1.9,1.08c-1.27,0-2-.66-2-1.72"/><polygon class="cls-6" points="916.85 301.68 917.57 301.68 919.46 299.25 917.54 296.63 916.88 296.63 916.88 296.03 919.74 296.03 919.74 296.63 918.99 296.63 920.35 298.54 920.4 298.54 921.74 296.63 920.97 296.63 920.97 296.03 923.31 296.03 923.31 296.63 922.59 296.63 920.77 299.04 922.73 301.68 923.38 301.68 923.38 302.28 920.49 302.28 920.49 301.68 921.25 301.68 919.88 299.75 919.82 299.75 918.42 301.68 919.19 301.68 919.19 302.28 916.85 302.28 916.85 301.68"/><polygon class="cls-6" points="929.09 301.68 930.29 301.68 930.29 294.51 928.15 294.51 928.15 295.92 927.13 295.92 927.13 293.86 934.72 293.86 934.72 295.92 933.7 295.92 933.7 294.51 931.58 294.51 931.58 301.68 932.78 301.68 932.78 302.28 929.09 302.28 929.09 301.68"/><path class="cls-6" d="M939.08,300.53V299.4h-.8c-1.33,0-1.76.41-1.76,1.13v.25c0,.6.45.9,1.17.9s1.39-.36,1.39-1.15m-3.87.18c0-1.19.81-1.83,2.94-1.83h.93V298a1.32,1.32,0,0,0-1.46-1.51,2.21,2.21,0,0,0-1,.19v0a.65.65,0,0,1,.39.62.66.66,0,0,1-.74.7.69.69,0,0,1-.74-.73c0-.71.91-1.41,2.5-1.41s2.3.73,2.3,2v3.85h.91v.48a2,2,0,0,1-1,.24,1,1,0,0,1-1.09-1v-.08h0a1.84,1.84,0,0,1-1.9,1.08c-1.28,0-2-.66-2-1.72"/><path class="cls-6" d="M942.87,300.09V296.9l-.9-.16v-.46l2.13-.39V300c0,1.11.46,1.63,1.44,1.63.7,0,1.47-.37,1.47-1.17V296.9l-.91-.16v-.46l2.13-.39v5.52l.9.16V302l-2.1.4v-1.11h0a2,2,0,0,1-1.89,1.11c-1.59,0-2.22-.79-2.22-2.34"/><path class="cls-6" d="M950.92,301.2v-4.53h-.85V296h.15c.68,0,.81-.18.93-.57l.33-1.07h.66V296h1.65v.64h-1.65v5h1.65v.46a4.59,4.59,0,0,1-1.63.26c-.92,0-1.24-.33-1.24-1.15"/><path class="cls-6" d="M958.91,301.56h-.06v.72h-1v-2.47h1v.55c0,.81.53,1.38,1.87,1.38s2-.62,2-1.56-.46-1.25-1.54-1.51l-.68-.15c-1.61-.38-2.56-1.12-2.56-2.53s1.12-2.28,2.84-2.28a2,2,0,0,1,1.86.81h.07v-.66h1v2.37h-1v-.55c0-.81-.53-1.28-1.88-1.28-1.19,0-1.77.55-1.77,1.35s.51,1.26,1.67,1.55l.64.14c1.56.38,2.47,1.12,2.47,2.44,0,1.47-1.07,2.55-3,2.55a2.09,2.09,0,0,1-2-.87"/><path class="cls-6" d="M965.24,299.16a3,3,0,0,1,3.16-3.27c1.39,0,2.27.63,2.27,1.5a.79.79,0,0,1-.83.86.74.74,0,0,1-.81-.76.81.81,0,0,1,.53-.76v-.05a2.52,2.52,0,0,0-1-.17,1.92,1.92,0,0,0-2,2v1a1.88,1.88,0,0,0,1.9,2.09,2,2,0,0,0,1.9-1.1l.46.28a2.55,2.55,0,0,1-2.53,1.67,2.94,2.94,0,0,1-3-3.27"/><path class="cls-6" d="M971.75,301.68h.9v-7.56l-.9-.16v-.45l2.13-.4V297h0a1.92,1.92,0,0,1,1.86-1.12c1.59,0,2.22.79,2.22,2.35v3.45h.9v.6h-3v-.6h.89v-3.37c0-1.11-.46-1.63-1.44-1.63-.7,0-1.46.37-1.46,1.17v3.83h.9v.6h-3Z"/><path class="cls-6" d="M984.68,299.89v-1.47c0-1.1-.54-1.88-1.71-1.88s-1.71.78-1.71,1.88v1.47c0,1.1.54,1.88,1.71,1.88s1.71-.78,1.71-1.88m-4.77-.73a3.07,3.07,0,1,1,3.06,3.27,3,3,0,0,1-3.06-3.27"/><path class="cls-6" d="M992.05,299.89v-1.47c0-1.1-.53-1.88-1.7-1.88s-1.71.78-1.71,1.88v1.47c0,1.1.53,1.88,1.71,1.88s1.7-.78,1.7-1.88m-4.76-.73a3.07,3.07,0,1,1,3.06,3.27,3,3,0,0,1-3.06-3.27"/><polygon class="cls-6" points="994.4 301.68 995.31 301.68 995.31 294.12 994.4 293.96 994.4 293.51 996.53 293.11 996.53 301.68 997.44 301.68 997.44 302.28 994.4 302.28 994.4 301.68"/><path class="cls-6" d="M896.48,312.56c0-2.8,1.54-4.35,3.68-4.35a2.26,2.26,0,0,1,2.08.89h0v-.75h1v2.5h-1v-.6c0-.8-.78-1.36-2-1.36-1.67,0-2.42,1.22-2.42,2.79v1.66a2.6,2.6,0,0,0,5,1.18l.54.27a3.29,3.29,0,0,1-3.18,2.13c-2.31,0-3.77-1.71-3.77-4.36"/><path class="cls-6" d="M905.41,314.58v-3.19l-.91-.15v-.46l2.13-.4v4.12c0,1.11.46,1.63,1.44,1.63.71,0,1.47-.38,1.47-1.18v-3.56l-.9-.15v-.46l2.13-.4v5.53l.9.16v.45l-2.1.4v-1.11h-.05a2,2,0,0,1-1.89,1.11c-1.6,0-2.22-.78-2.22-2.34"/><polygon class="cls-6" points="912.54 316.17 913.45 316.17 913.45 308.62 912.54 308.46 912.54 308 914.67 307.6 914.67 316.17 915.58 316.17 915.58 316.78 912.54 316.78 912.54 316.17"/><path class="cls-6" d="M917.36,315.69v-4.53h-.85v-.64h.15c.68,0,.81-.18.93-.56l.33-1.08h.65v1.64h1.66v.64h-1.66v5h1.66v.45a4.34,4.34,0,0,1-1.63.27c-.92,0-1.24-.34-1.24-1.16"/><path class="cls-6" d="M921.83,314.58v-3.19l-.91-.15v-.46l2.13-.4v4.12c0,1.11.46,1.63,1.44,1.63.71,0,1.47-.38,1.47-1.18v-3.56l-.9-.15v-.46l2.13-.4v5.53l.9.16v.45l-2.1.4v-1.11h0a2,2,0,0,1-1.89,1.11c-1.6,0-2.22-.78-2.22-2.34"/><path class="cls-6" d="M929.14,316.17h.91v-4.78l-.91-.15v-.46l2.1-.4v1.11h0a1.74,1.74,0,0,1,1.62-1.11c.77,0,1.27.37,1.27,1a.75.75,0,0,1-.76.82.7.7,0,0,1-.79-.67A.5.5,0,0,1,933,311v0a1.47,1.47,0,0,0-.28,0,1.55,1.55,0,0,0-1.41,1.37v3.82h1.16v.61h-3.29Z"/><path class="cls-6" d="M938.74,315v-1.14h-.8c-1.32,0-1.76.41-1.76,1.14v.24c0,.6.45.9,1.17.9s1.39-.36,1.39-1.14m-3.87.18c0-1.2.81-1.84,2.94-1.84h.93v-.88a1.32,1.32,0,0,0-1.46-1.51,2.08,2.08,0,0,0-1,.2v0a.7.7,0,0,1-.35,1.33.69.69,0,0,1-.74-.74c0-.71.91-1.41,2.5-1.41s2.3.74,2.3,2v3.85h.92v.47a2,2,0,0,1-1,.24,1,1,0,0,1-1.09-1v-.07h0a1.84,1.84,0,0,1-1.9,1.07c-1.28,0-2-.65-2-1.71"/><polygon class="cls-6" points="941.76 316.17 942.66 316.17 942.66 308.62 941.76 308.46 941.76 308 943.89 307.6 943.89 316.17 944.79 316.17 944.79 316.78 941.76 316.78 941.76 316.17"/><polygon class="cls-6" points="948.85 316.17 949.79 316.17 949.79 308.95 948.85 308.95 948.85 308.35 952.03 308.35 952.03 308.95 951.08 308.95 951.08 312.14 955.38 312.14 955.38 308.95 954.44 308.95 954.44 308.35 957.61 308.35 957.61 308.95 956.67 308.95 956.67 316.17 957.61 316.17 957.61 316.78 954.44 316.78 954.44 316.17 955.38 316.17 955.38 312.79 951.08 312.79 951.08 316.17 952.03 316.17 952.03 316.78 948.85 316.78 948.85 316.17"/><path class="cls-6" d="M960.17,313h3.2v-.14c0-1.12-.49-1.89-1.56-1.89s-1.64.75-1.64,1.88Zm-1.33.61a3,3,0,0,1,3-3.27,2.71,2.71,0,0,1,2.82,2.94v.31h-4.46V314a1.88,1.88,0,0,0,1.92,2.1A2,2,0,0,0,964,315l.47.29a2.68,2.68,0,0,1-2.62,1.65,2.94,2.94,0,0,1-3-3.27"/><path class="cls-6" d="M965.78,316.17h.91v-4.78l-.91-.15v-.46l2.1-.4v1.11h.06a1.71,1.71,0,0,1,1.61-1.11c.77,0,1.27.37,1.27,1a.74.74,0,0,1-.75.82c-.5,0-.8-.29-.8-.67a.5.5,0,0,1,.33-.53v0a1.47,1.47,0,0,0-.28,0,1.56,1.56,0,0,0-1.41,1.37v3.82h1.16v.61h-3.29Z"/><path class="cls-6" d="M972.33,308.5v-.07a.76.76,0,0,1,1.52,0v.07a.76.76,0,0,1-1.52,0m-.76,7.67h.91v-4.78l-.91-.15v-.46l2.13-.4v5.79h.91v.61h-3Z"/><path class="cls-6" d="M976.38,315.69v-4.53h-.85v-.64h.15c.68,0,.8-.18.93-.56l.33-1.08h.65v1.64h1.66v.64h-1.66v5h1.66v.45a4.34,4.34,0,0,1-1.63.27c-.92,0-1.24-.34-1.24-1.16"/><path class="cls-6" d="M984,315v-1.14h-.8c-1.33,0-1.76.41-1.76,1.14v.24c0,.6.44.9,1.17.9S984,315.81,984,315m-3.88.18c0-1.2.82-1.84,3-1.84H984v-.88a1.33,1.33,0,0,0-1.47-1.51,2.08,2.08,0,0,0-1,.2v0a.7.7,0,0,1-.34,1.33.69.69,0,0,1-.74-.74c0-.71.9-1.41,2.5-1.41s2.29.74,2.29,2v3.85h.92v.47a2,2,0,0,1-1,.24c-.73,0-1.1-.39-1.1-1v-.07H984a1.83,1.83,0,0,1-1.9,1.07c-1.27,0-2-.65-2-1.71"/><path class="cls-6" d="M991.27,312.66v-.43a1.32,1.32,0,0,0-2.63,0v.43a1.32,1.32,0,0,0,2.63,0m-1.62,6h.64c1.21,0,1.93-.4,1.93-1s-.39-.88-1.42-.88h-2a1,1,0,0,0-.69,1c0,.61.59.93,1.57.93m-2.63-.85c0-.65.66-1.07,1.37-1.23v0a1.06,1.06,0,0,1-.85-1.07,1.28,1.28,0,0,1,1.14-1.18v0a1.93,1.93,0,0,1-1.31-1.85c0-1.27,1.07-2.06,2.57-2.06a3,3,0,0,1,1.72.48c0-.93.46-1.23,1-1.23a.64.64,0,0,1,.7.62.61.61,0,0,1-.69.61.66.66,0,0,1-.57-.25h-.05v.57a1.76,1.76,0,0,1,.49,1.26c0,1.28-1.09,2.07-2.6,2.07a3.38,3.38,0,0,1-.72-.08c-.41.1-.78.37-.78.7s.3.55,1,.55H991c1.56,0,2.27.61,2.27,1.66,0,1.22-1.13,2-3.33,2s-2.88-.58-2.88-1.48"/><path class="cls-6" d="M995.34,313h3.2v-.14c0-1.12-.48-1.89-1.56-1.89s-1.64.75-1.64,1.88Zm-1.33.61a3,3,0,0,1,3-3.27,2.71,2.71,0,0,1,2.82,2.94v.31h-4.46V314a1.89,1.89,0,0,0,1.93,2.1,2,2,0,0,0,1.93-1.1l.48.29a2.69,2.69,0,0,1-2.63,1.65,2.94,2.94,0,0,1-3-3.27"/><line class="cls-3" x1="636" y1="425.41" x2="535.81" y2="552.03"/><polyline class="cls-2" points="1.09 76.02 177.79 128.41 278.21 160.24 390.66 160.24 483.26 149.63 643.22 128.41 723.19 107.2 793.55 75.38 852.48 54.17 912.61 1.13"/><polygon class="cls-12" points="572.99 616.88 545.29 571.14 545.25 571.08 509.57 512.15 513.34 458.15 298.39 308.24 279.41 295.7 250.03 284.85 214.21 294.67 189.48 305.87 175.16 316.72 157.61 333.34 145.07 333.34 111.01 314.79 91.48 325.25 93.26 347.02 88.47 353.01 102.07 368.62 92.05 382.18 85.25 375.4 76.29 377.1 50.13 411.36 50.13 420.17 81.65 458.83 163.7 509.03 252.5 570.17 344.96 613.15 389.38 643.68 403.71 682.67 403.49 683.04 643.27 683.04 643.38 682 583.09 617.55 572.99 616.88"/><path d="M898.56,25.42c0-.09,0-.14,0-.19,0-1.66,0-3.33,0-5a.38.38,0,0,0-.14-.26,26.56,26.56,0,0,0-4.22-2.4,19.85,19.85,0,0,0-4.31-1.44,30.28,30.28,0,0,0-5.11-.57,25.48,25.48,0,0,0-2.76.12,14.14,14.14,0,0,0-1.91.41c-.67.17-1.33.34-2,.57a11.91,11.91,0,0,0-2.92,1.62,10,10,0,0,0-3.86,4.93,9.52,9.52,0,0,0-.54,2.74,10.87,10.87,0,0,0,.08,2.61,7.71,7.71,0,0,0,2.68,4.59,12.71,12.71,0,0,0,4.21,2.38c1.56.54,3.14,1,4.73,1.5,2.16.65,4.39,1.06,6.5,1.86a6.62,6.62,0,0,1,1.83,1,3.31,3.31,0,0,1,0,5.24,5.49,5.49,0,0,1-2.46,1.19,23,23,0,0,1-2.36.25,13.7,13.7,0,0,1-5.91-.86,33.5,33.5,0,0,1-4.14-2.1c-.91-.49-1.75-1.1-2.62-1.66l-2-1.29-.28-.14c0,.09,0,.14,0,.19,0,1.76,0,3.51,0,5.27a.34.34,0,0,0,.15.26c.51.32,1,.61,1.55.92a35.52,35.52,0,0,0,4.81,2.53,29.83,29.83,0,0,0,3.3,1.25,18,18,0,0,0,6.5.65,17.19,17.19,0,0,0,3.36-.54,15.48,15.48,0,0,0,9-6.56,8.41,8.41,0,0,0,1.34-6.61,9.5,9.5,0,0,0-6.35-7.25A51.52,51.52,0,0,0,888.87,29a55.91,55.91,0,0,1-6.12-1.68,6.92,6.92,0,0,1-2.12-1.06,3.4,3.4,0,0,1,.49-5.73,5.79,5.79,0,0,1,2.37-.58,17.47,17.47,0,0,1,5,.33,16,16,0,0,1,4.85,1.88c1.48.85,2.89,1.8,4.34,2.71l.88.55M886.41,56.6h-1.73l-.33-.05c-.66,0-1.31-.07-2-.16A25,25,0,0,1,876.65,55a24.25,24.25,0,0,1-10.93-7.9,22.21,22.21,0,0,1-4.74-12,21.69,21.69,0,0,1,.42-6.53,22.48,22.48,0,0,1,6.25-11.36,25.6,25.6,0,0,1,22.94-6.8A24.5,24.5,0,0,1,905,19a22,22,0,0,1,5.08,12.43c0,.35.07.69.1,1v1.64a1.26,1.26,0,0,0,0,.27,19.4,19.4,0,0,1-.47,3.56,23.19,23.19,0,0,1-11.82,15.55,24.72,24.72,0,0,1-10.37,3.06l-1.1.09"/><path class="cls-7" d="M898.56,25.42l-.88-.55c-1.45-.91-2.86-1.86-4.34-2.71a16,16,0,0,0-4.85-1.88,17.84,17.84,0,0,0-5-.34,5.76,5.76,0,0,0-2.37.59,3.4,3.4,0,0,0-.49,5.73,6.92,6.92,0,0,0,2.12,1.06A55.91,55.91,0,0,0,888.87,29a51.52,51.52,0,0,1,5.87,1.63,9.52,9.52,0,0,1,6.35,7.26,8.42,8.42,0,0,1-1.34,6.61,15.5,15.5,0,0,1-9,6.55,17.19,17.19,0,0,1-3.36.54,18,18,0,0,1-6.5-.65,29.83,29.83,0,0,1-3.3-1.25,35.52,35.52,0,0,1-4.81-2.53c-.51-.31-1-.6-1.55-.91A.45.45,0,0,1,871,46V40.71c0-.05,0-.1,0-.19a2.64,2.64,0,0,1,.29.14l2,1.29c.87.56,1.71,1.17,2.62,1.66a32.81,32.81,0,0,0,4.14,2.1,13.7,13.7,0,0,0,5.91.86,23,23,0,0,0,2.36-.25,5.54,5.54,0,0,0,2.46-1.19,3.31,3.31,0,0,0,0-5.24,6.62,6.62,0,0,0-1.83-1c-2.11-.8-4.34-1.21-6.5-1.86-1.59-.48-3.17-1-4.73-1.5a12.71,12.71,0,0,1-4.21-2.38,7.71,7.71,0,0,1-2.68-4.59,10.87,10.87,0,0,1-.08-2.61,9.45,9.45,0,0,1,.54-2.74,10,10,0,0,1,3.86-4.93,12.22,12.22,0,0,1,2.91-1.62c.65-.23,1.31-.4,2-.57a14.14,14.14,0,0,1,1.91-.41,25.48,25.48,0,0,1,2.76-.12,30.05,30.05,0,0,1,5.1.57,19.76,19.76,0,0,1,4.32,1.44,26.56,26.56,0,0,1,4.22,2.4.38.38,0,0,1,.14.26c0,1.66,0,3.33,0,5,0,.05,0,.1,0,.19"/><path d="M74.44,86.63c0-.09,0-.14,0-.19v-5a.43.43,0,0,0-.15-.26,26.56,26.56,0,0,0-4.22-2.4,19.85,19.85,0,0,0-4.31-1.44,30.28,30.28,0,0,0-5.1-.57,25.56,25.56,0,0,0-2.77.12,14.14,14.14,0,0,0-1.91.41c-.67.17-1.33.34-2,.57a12.09,12.09,0,0,0-2.92,1.62,10,10,0,0,0-3.86,4.93,9.52,9.52,0,0,0-.54,2.74,11.41,11.41,0,0,0,.08,2.61,7.66,7.66,0,0,0,2.68,4.58,12.57,12.57,0,0,0,4.21,2.39c1.56.54,3.14,1,4.73,1.5,2.16.65,4.39,1.06,6.5,1.86a6.62,6.62,0,0,1,1.83,1,3.31,3.31,0,0,1,0,5.24,5.49,5.49,0,0,1-2.46,1.19,23,23,0,0,1-2.36.25,13.7,13.7,0,0,1-5.91-.86,33.5,33.5,0,0,1-4.14-2.1c-.91-.49-1.75-1.1-2.62-1.66l-2-1.29c-.08-.05-.18-.09-.28-.14s0,.14,0,.19c0,1.76,0,3.51,0,5.27a.35.35,0,0,0,.15.26c.51.32,1,.61,1.55.92a35.52,35.52,0,0,0,4.81,2.53,29.83,29.83,0,0,0,3.3,1.25,18,18,0,0,0,6.5.65,17.19,17.19,0,0,0,3.36-.54,15.48,15.48,0,0,0,9-6.56A8.41,8.41,0,0,0,77,99.09a9.5,9.5,0,0,0-6.35-7.25,51.52,51.52,0,0,0-5.87-1.63,53.8,53.8,0,0,1-6.12-1.69,6.67,6.67,0,0,1-2.12-1A3.4,3.4,0,0,1,57,81.74a5.79,5.79,0,0,1,2.37-.58,17.47,17.47,0,0,1,5,.33,16,16,0,0,1,4.85,1.88c1.48.85,2.89,1.8,4.34,2.71l.88.55M62.3,117.81H60.56l-.33,0c-.65-.05-1.31-.07-2-.16a25,25,0,0,1-5.74-1.38,24.25,24.25,0,0,1-10.93-7.9,22.21,22.21,0,0,1-4.74-12,21.69,21.69,0,0,1,.42-6.53,22.48,22.48,0,0,1,6.25-11.36,25.6,25.6,0,0,1,22.94-6.8,24.5,24.5,0,0,1,14.44,8.55A22,22,0,0,1,86,92.6c0,.35.07.69.1,1v1.64a2.51,2.51,0,0,0,0,.27,20.29,20.29,0,0,1-.46,3.56,23.25,23.25,0,0,1-11.82,15.55,24.81,24.81,0,0,1-10.38,3.06l-1.09.09"/><path class="cls-7" d="M74.44,86.63l-.88-.55c-1.45-.91-2.86-1.86-4.34-2.71a16,16,0,0,0-4.85-1.88,17.84,17.84,0,0,0-5-.34,5.71,5.71,0,0,0-2.36.59,3.39,3.39,0,0,0-.49,5.73,6.75,6.75,0,0,0,2.11,1.06,55.91,55.91,0,0,0,6.12,1.68,51,51,0,0,1,5.87,1.63A9.52,9.52,0,0,1,77,99.09a8.45,8.45,0,0,1-1.34,6.62,15.5,15.5,0,0,1-9,6.55,17.19,17.19,0,0,1-3.36.54,18,18,0,0,1-6.5-.65,29.83,29.83,0,0,1-3.3-1.25,35.52,35.52,0,0,1-4.81-2.53c-.51-.31-1-.6-1.55-.91a.45.45,0,0,1-.16-.27v-5.27s0-.1,0-.19a2.43,2.43,0,0,1,.28.14l2,1.29c.87.56,1.71,1.17,2.62,1.66a35,35,0,0,0,4.14,2.1,13.7,13.7,0,0,0,5.91.86,23,23,0,0,0,2.36-.25,5.49,5.49,0,0,0,2.46-1.19,3.31,3.31,0,0,0,0-5.24,6.48,6.48,0,0,0-1.83-1c-2.11-.8-4.34-1.21-6.5-1.86-1.58-.48-3.17-1-4.73-1.5a12.57,12.57,0,0,1-4.2-2.38,7.73,7.73,0,0,1-2.69-4.59,11.41,11.41,0,0,1-.08-2.61,9.45,9.45,0,0,1,.54-2.74,10.05,10.05,0,0,1,3.86-4.93A12.09,12.09,0,0,1,54,77.88c.64-.23,1.3-.4,2-.57a14.14,14.14,0,0,1,1.91-.41,25.59,25.59,0,0,1,2.76-.12,30.28,30.28,0,0,1,5.11.57,19.85,19.85,0,0,1,4.31,1.44,26.56,26.56,0,0,1,4.22,2.4.38.38,0,0,1,.14.26c0,1.66,0,3.33,0,5a.89.89,0,0,1,0,.19"/><path class="cls-6" d="M414.57,488.06c0-1.41.63-2.21,1.73-2.21s1.66.81,1.66,2.24v.16h-3.39Zm1.81,5a3.2,3.2,0,0,0,3.14-2.09l-.64-.39a2.21,2.21,0,0,1-2.17,1.33c-1.29,0-2.14-.89-2.14-2.43V489h5.11v-.4A3.28,3.28,0,0,0,416.3,485c-2.07,0-3.52,1.58-3.52,4s1.32,4,3.6,4M404,492.92h3.65v-.8h-1v-1.85l1.14-1.2,1.87,3.05h-.83v.8h3.46v-.8h-.76l-2.62-4.1,2-2H412v-.8h-3.28v.8h1l-1.83,2-1.1,1.24h-.07v-7.6l-2.67.52v.65l1,.2v9.12h-1Zm-5.1-.86c-.79,0-1.28-.35-1.28-1.06v-.28c0-.85.49-1.32,1.89-1.32h.89v1.32c0,.94-.64,1.34-1.5,1.34m-.65,1a2.13,2.13,0,0,0,2.2-1.32h.07v.08a1.17,1.17,0,0,0,1.32,1.24,2.56,2.56,0,0,0,1.23-.29v-.67h-1V487.5c0-1.56-1-2.48-2.82-2.48s-3,.87-3,1.78a.88.88,0,0,0,.9,1,.86.86,0,0,0,.95-.92.81.81,0,0,0-.44-.77V486a2.47,2.47,0,0,1,1.1-.21c1.14,0,1.66.66,1.66,1.86v1h-1.07c-2.4,0-3.41.79-3.41,2.29C395.91,492.28,396.71,493.09,398.24,493.09ZM387,492.92h7.59v-2.81h-1.35V492h-3.39v-8.69h1.09v-.8H387v.8h1.09v8.77H387Zm-10.4,0h4v-.8h-1.3v-4.64a1.75,1.75,0,0,1,1.53-1.62,1.28,1.28,0,0,1,.28,0v.05a.6.6,0,0,0-.36.62.88.88,0,0,0,1,.86,1,1,0,0,0,1-1.08c0-.85-.6-1.32-1.5-1.32a2,2,0,0,0-1.87,1.38h-.08V485l-2.62.52v.65l1,.19v5.74h-1Zm-6.36-4.86c0-1.41.62-2.21,1.72-2.21s1.67.81,1.67,2.24v.16h-3.39Zm1.81,5a3.19,3.19,0,0,0,3.13-2.09l-.64-.39a2.2,2.2,0,0,1-2.16,1.33c-1.3,0-2.14-.89-2.14-2.43V489h5.11v-.4a3.29,3.29,0,0,0-3.39-3.62c-2.06,0-3.52,1.58-3.52,4s1.32,4,3.61,4m-10.45,1.06a1.21,1.21,0,0,1,.71-1.15h2.4c1.09,0,1.55.3,1.55,1s-.76,1.22-2.1,1.22h-.8c-1.13,0-1.76-.35-1.76-1.08m2.13-4.84a1.31,1.31,0,0,1-1.42-1.5v-.49c0-1,.47-1.5,1.42-1.5a1.31,1.31,0,0,1,1.43,1.5v.49A1.31,1.31,0,0,1,363.71,489.31Zm-.06,6.75c2.63,0,4-1,4-2.49,0-1.31-.83-2.11-2.75-2.11h-1.74c-.8,0-1.12-.19-1.12-.64a1,1,0,0,1,.75-.82,4.66,4.66,0,0,0,.94.11c1.82,0,3.12-1,3.12-2.56a2.19,2.19,0,0,0-.69-1.64v-.61h.06a1,1,0,0,0,.73.32.79.79,0,0,0,.86-.81.8.8,0,0,0-.86-.82c-.71,0-1.2.43-1.24,1.55a3.45,3.45,0,0,0-2-.52c-1.81,0-3.09.93-3.09,2.53a2.35,2.35,0,0,0,1.54,2.28v.06a1.57,1.57,0,0,0-1.37,1.5,1.27,1.27,0,0,0,1,1.33v.06c-.85.19-1.62.71-1.62,1.5C360.18,495.37,361,496.06,363.65,496.06Zm-10.2-3.14h4v-.8h-1.3v-4.64a1.75,1.75,0,0,1,1.53-1.62,1.28,1.28,0,0,1,.28,0v.05a.6.6,0,0,0-.36.62.88.88,0,0,0,1,.86,1,1,0,0,0,1-1.08c0-.85-.6-1.32-1.5-1.32a2,2,0,0,0-1.88,1.38h-.07V485l-2.63.52v.65l1,.19v5.74h-1Zm-6,.17a2.22,2.22,0,0,0,2.2-1.38h.07v1.38l2.63-.52v-.65l-1-.19V485l-2.67.52v.65l1,.19v4.24a1.45,1.45,0,0,1-1.62,1.36c-1.07,0-1.55-.58-1.55-1.85V485l-2.67.52v.65l1,.19v3.83c0,1.92.73,2.88,2.6,2.88M339.11,492a1.57,1.57,0,0,1-1.72-1.46v-3a1.57,1.57,0,0,1,1.72-1.46c1.13,0,1.86.84,1.86,2.19v1.57c0,1.36-.73,2.19-1.86,2.19m.52,1.06c1.9,0,3.12-1.49,3.12-4s-1.22-4-3.12-4a2.25,2.25,0,0,0-2.17,1.33h-.07v-4.72l-2.68.52v.65l1,.2v9.92h.73l.83-1.16h.08a2.33,2.33,0,0,0,2.27,1.33m-8.81,0c1.74,0,2.84-.93,2.84-2.36s-.8-2.05-2.39-2.4l-.76-.18c-.79-.19-1.19-.58-1.19-1.22s.51-1,1.41-1c1.09,0,1.59.39,1.59,1.18v.43h1.13v-2.3h-1.13v.68h-.06c-.17-.48-.78-.86-1.76-.86-1.61,0-2.66.83-2.66,2.27s.77,2.08,2.34,2.45l.81.19c.78.2,1.16.57,1.16,1.16,0,.77-.55,1.13-1.61,1.13s-1.63-.52-1.63-1.34v-.27h-1.13v2.31h1.13v-.78H329A1.92,1.92,0,0,0,330.82,493.09Zm-8-.17h3.69v-.8h-1V481.63l-2.68.52v.65l1,.2v9.12h-1Zm-6.16-4.86c0-1.41.62-2.21,1.72-2.21s1.67.81,1.67,2.24v.16H316.7Zm1.81,5a3.19,3.19,0,0,0,3.13-2.09l-.63-.39a2.21,2.21,0,0,1-2.17,1.33c-1.29,0-2.14-.89-2.14-2.43V489h5.11v-.4a3.28,3.28,0,0,0-3.39-3.62c-2.06,0-3.51,1.58-3.51,4s1.31,4,3.6,4m-17.8-.17h3.62v-.8h-.95v-4.61a1.41,1.41,0,0,1,1.58-1.38c1,0,1.48.58,1.48,1.86v4.13h-.95v.8h3.56v-.8h-.95v-4.61a1.41,1.41,0,0,1,1.58-1.38c1,0,1.48.58,1.48,1.86v4.13h-1v.8h3.62v-.8h-1V487.9c0-1.92-.71-2.88-2.53-2.88A2.41,2.41,0,0,0,308,486.5h-.05c-.29-1-1-1.48-2.35-1.48a2.16,2.16,0,0,0-2.16,1.38h-.07V485l-2.63.52v.65l1,.19v5.74h-1Zm-14.23,0h3.62v-.8h-1v-4.61a1.42,1.42,0,0,1,1.58-1.38c1,0,1.49.58,1.49,1.86v4.13h-1v.8h3.56v-.8h-.95v-4.61a1.41,1.41,0,0,1,1.57-1.38c1,0,1.49.58,1.49,1.86v4.13H296v.8h3.62v-.8h-1V487.9c0-1.92-.71-2.88-2.54-2.88a2.42,2.42,0,0,0-2.32,1.48h0a2.12,2.12,0,0,0-2.36-1.48,2.17,2.17,0,0,0-2.16,1.38h-.07V485l-2.63.52v.65l1,.19v5.74h-1Zm-6,.17a2.23,2.23,0,0,0,2.2-1.38h.07v1.38l2.63-.52v-.65l-1-.19V485l-2.67.52v.65l1,.19v4.24a1.45,1.45,0,0,1-1.62,1.36c-1.07,0-1.55-.58-1.55-1.85V485l-2.67.52v.65l1,.19v3.83c0,1.92.73,2.88,2.6,2.88m-10.71-9.66h2a1.51,1.51,0,0,1,1.63,1.63v.7a1.51,1.51,0,0,1-1.63,1.63h-2Zm-2.85,9.49h3.93v-.8h-1.08v-3.9h1.49l1.74,3.32a2.12,2.12,0,0,0,2.21,1.38h1.14v-.8h-.1a1.6,1.6,0,0,1-1.52-1l-1.81-3.23a2.6,2.6,0,0,0,2.29-2.66c0-1.84-1.2-2.7-3-2.7h-5.27v.8H268v8.77h-1.09Z"/></svg>